<?xml version="1.0" encoding="UTF-8"?>
<!DOCTYPE svg PUBLIC "-//W3C//DTD SVG 1.1//EN" "http://www.w3.org/Graphics/SVG/1.1/DTD/svg11.dtd">
<!-- Creator: CorelDRAW X7 -->
<svg xmlns="http://www.w3.org/2000/svg" xml:space="preserve" width="99.6722mm" height="5.9501mm" version="1.1" style="shape-rendering:geometricPrecision; text-rendering:geometricPrecision; image-rendering:optimizeQuality; fill-rule:evenodd; clip-rule:evenodd"
viewBox="0 0 83094 4960"
 xmlns:xlink="http://www.w3.org/1999/xlink">
 <defs>
  <style type="text/css">
   <![CDATA[
    .str0 {stroke:#393185;stroke-width:833.672;stroke-linecap:round;stroke-linejoin:round}
    .fil0 {fill:none;fill-rule:nonzero}
    .fil1 {fill:#FEFEFE;fill-rule:nonzero}
   ]]>
  </style>
 </defs>
 <g id="Слой_x0020_1">
  <metadata id="CorelCorpID_0Corel-Layer"/>
  <g>
   <path class="fil0 str0" d="M3829 619c0,-76 -43,-119 -119,-119l-3174 0c-73,0 -119,43 -119,119l0 3711c0,76 46,119 119,119l955 0c72,0 119,-43 119,-119l0 -2694 1029 0 0 2694c0,76 46,119 119,119l952 0c76,0 119,-43 119,-119l0 -3711zm4248 3722c0,-25 -6,-49 -17,-73l-1399 -3614c-35,-94 -122,-154 -210,-154l-704 0c-86,0 -175,57 -216,154l-1401 3613c-8,20 -14,44 -14,72 0,67 46,110 133,110l946 0c101,0 185,-68 209,-151l116 -370 1152 0 117 370c29,89 110,151 206,151l946 0c87,0 136,-43 136,-108zm-2254 -1394l271 -872 273 872 -544 0zm4851 204c-47,0 -93,17 -139,47 -62,43 -140,81 -233,110 -89,30 -170,44 -238,44 -489,8 -905,-394 -895,-871 -10,-478 406,-886 895,-875 73,0 154,17 250,52 94,32 175,73 238,119 38,26 78,39 122,39 48,0 85,-18 110,-53l506 -760c13,-18 21,-45 21,-75 0,-46 -26,-97 -70,-130 -154,-105 -343,-197 -570,-270 -228,-73 -430,-111 -607,-111 -384,0 -736,92 -1055,276 -316,181 -568,429 -754,746 -184,316 -276,662 -276,1042 0,379 92,725 276,1041 186,316 438,565 754,748 319,181 671,274 1055,274 179,0 379,-35 604,-107 224,-70 405,-156 549,-256 57,-40 92,-94 92,-149 0,-18 -6,-38 -16,-53l-499 -768c-29,-40 -70,-60 -120,-60zm4718 1190c0,-25 -6,-49 -17,-73l-1398 -3614c-35,-94 -122,-154 -211,-154l-703 0c-87,0 -176,57 -216,154l-1402 3613c-8,20 -14,44 -14,72 0,67 47,110 133,110l947 0c100,0 184,-68 208,-151l117 -370 1152 0 116 370c30,89 111,151 206,151l946 0c87,0 136,-43 136,-108zm-2254 -1394l271 -872 273 872 -544 0zm8612 1405c0,-36 -11,-71 -33,-103l-1210 -1900 1194 -1638c30,-35 44,-73 44,-113 0,-57 -36,-92 -108,-92l-1098 0c-117,0 -176,11 -244,107l-927 1300 -203 0 0 -1294c0,-76 -45,-119 -119,-119l-951 0c-76,0 -119,46 -119,119l0 1294 -81 0 -927 -1300c-67,-96 -127,-107 -244,-107l-1097 0c-73,0 -109,35 -109,92 0,40 14,78 44,113l1194 1638 -1210 1900c-22,32 -33,67 -33,103 0,57 38,97 106,97l1108 0c62,0 125,-25 160,-68l870 -1388 219 0 0 1337c0,73 43,119 119,119l951 0c74,0 119,-43 119,-119l0 -1337 341 0 870 1388c35,43 97,68 160,68l1108 0c68,0 106,-40 106,-97zm3946 -3733c0,-76 -46,-119 -119,-119l-987 0c-92,0 -171,49 -236,146l-1113 1745 0 -1772c0,-76 -43,-119 -119,-119l-952 0c-76,0 -119,46 -119,119l0 3711c0,76 46,119 119,119l909 0c99,0 183,-49 241,-144l1183 -1898 0 1923c0,76 46,119 119,119l955 0c73,0 119,-43 119,-119l0 -3711zm3538 1282c11,-849 -601,-1411 -1451,-1401l-510 0 -425 0 -433 0c-98,0 -165,70 -165,171l0 3613c0,105 59,165 165,165l852 0c108,0 176,-65 176,-165l0 -989 340 0c850,7 1462,-553 1451,-1394zm-1190 -5c0,100 -33,184 -101,251 -67,68 -149,101 -243,101l-257 0 0 -704 257 0c94,0 176,35 243,103 68,68 101,149 101,249zm4086 1255c-47,0 -93,17 -139,47 -62,43 -140,81 -233,110 -89,30 -170,44 -238,44 -489,8 -905,-394 -895,-871 -10,-478 406,-886 895,-875 73,0 154,17 250,52 94,32 175,73 238,119 38,26 78,39 122,39 48,0 85,-18 110,-53l506 -760c13,-18 21,-45 21,-75 0,-46 -26,-97 -70,-130 -154,-105 -343,-197 -570,-270 -228,-73 -430,-111 -607,-111 -384,0 -735,92 -1055,276 -316,181 -568,429 -754,746 -184,316 -276,662 -276,1042 0,379 92,725 276,1041 186,316 438,565 754,748 320,181 671,274 1055,274 179,0 379,-35 604,-107 224,-70 405,-156 549,-256 57,-40 92,-94 92,-149 0,-18 -6,-38 -16,-53l-498 -768c-30,-40 -71,-60 -121,-60zm4008 -103c11,-841 -600,-1401 -1450,-1393l-341 0 0 -990c0,-100 -67,-165 -175,-165l-852 0c-107,0 -166,60 -166,165l0 3614c0,99 68,170 166,170l433 0 424 0 511 0c850,11 1461,-552 1450,-1401zm-1190 5c0,100 -32,184 -100,252 -68,68 -149,100 -243,100l-258 0 0 -703 258 0c94,0 175,35 243,102 68,69 100,150 100,249zm5405 1299c0,-36 -10,-71 -32,-103l-1211 -1900 1195 -1638c30,-35 43,-73 43,-113 0,-57 -35,-92 -108,-92l-1098 0c-116,0 -176,11 -244,107l-927 1300 -287 0 0 -1294c0,-76 -43,-119 -119,-119l-951 0c-76,0 -120,43 -120,119l0 3711c0,76 44,119 120,119l951 0c76,0 119,-43 119,-119l0 -1337 425 0 871 1388c35,43 98,68 159,68l1109 0c68,0 105,-40 105,-97zm1489 -3733c0,-76 -44,-119 -120,-119l-952 0c-76,0 -119,43 -119,119l0 3711c0,76 43,119 119,119l952 0c76,0 120,-43 120,-119l0 -3711zm5418 0c0,-76 -44,-119 -119,-119l-3174 0c-73,0 -119,43 -119,119l0 3711c0,76 46,119 119,119l954 0c73,0 119,-43 119,-119l0 -2694 1030 0 0 2694c0,76 46,119 119,119l952 0c75,0 119,-43 119,-119l0 -3711zm553 3664c0,101 62,166 168,166l2622 0c99,0 168,-65 168,-166l0 -747c0,-133 -90,-219 -233,-219l-1532 0 0 -396 1124 0c116,0 184,-66 184,-171l0 -537c0,-108 -68,-173 -184,-173l-1124 0 0 -415 1545 0c106,0 168,-64 168,-169l0 -786c0,-105 -62,-170 -168,-170l-2570 0c-106,0 -168,62 -168,170l0 3613zm6438 -2382c11,-849 -600,-1411 -1450,-1401l-511 0 -424 0 -434 0c-97,0 -165,70 -165,171l0 3613c0,105 59,165 165,165l853 0c108,0 175,-65 175,-165l0 -989 341 0c850,7 1461,-553 1450,-1394zm-1190 -5c0,100 -32,184 -101,251 -67,68 -148,101 -242,101l-258 0 0 -704 258 0c94,0 175,35 242,103 69,68 101,149 101,249zm1545 2387c0,101 63,166 169,166l2621 0c100,0 168,-65 168,-166l0 -747c0,-133 -89,-219 -232,-219l-1533 0 0 -396 1125 0c116,0 183,-66 183,-171l0 -537c0,-108 -67,-173 -183,-173l-1125 0 0 -415 1546 0c106,0 168,-64 168,-169l0 -786c0,-105 -62,-170 -168,-170l-2570 0c-106,0 -169,62 -169,170l0 3613zm6584 -1058c0,-381 -187,-708 -501,-872 206,-141 327,-393 327,-670 0,-739 -516,-1183 -1388,-1183l-1449 0c-73,0 -119,43 -119,119l0 3711c0,76 46,119 119,119l1562 0c910,0 1449,-457 1449,-1224zm-1586 -1659c143,0 226,81 226,213 0,138 -83,217 -226,217l-352 0 0 -430 352 0zm394 1534c0,175 -108,280 -284,280l-462 0 0 -543 462 0c181,0 284,97 284,263zm1594 1183c0,101 63,166 168,166l2622 0c100,0 168,-65 168,-166l0 -747c0,-133 -89,-219 -233,-219l-1532 0 0 -396 1124 0c117,0 184,-66 184,-171l0 -537c0,-108 -67,-173 -184,-173l-1124 0 0 -415 1545 0c107,0 168,-64 168,-169l0 -786c0,-105 -61,-170 -168,-170l-2570 0c-105,0 -168,62 -168,170l0 3613zm6146 -1001c0,-444 -189,-787 -506,-930 213,-132 330,-370 330,-705 11,-751 -603,-1232 -1436,-1225 -441,0 -809,136 -1071,371 -40,38 -60,78 -60,121 0,33 11,62 30,92l476 678c30,41 65,62 103,62 35,0 75,-13 124,-42 79,-44 143,-70 198,-84 56,-14 122,-22 197,-22 138,0 240,71 240,189 0,108 -99,176 -231,176l-279 0c-98,0 -163,70 -163,187l0 591c0,108 68,176 184,176l268 0c252,0 375,81 375,243 0,133 -113,207 -332,207 -105,0 -216,-10 -332,-32 -114,-21 -203,-51 -268,-91 -41,-24 -78,-38 -114,-38 -51,0 -97,24 -135,73l-449 562c-38,45 -57,94 -57,151 0,76 38,144 116,200 273,208 666,352 1150,352 962,7 1652,-484 1642,-1262zm369 1001c0,101 63,166 168,166l2622 0c100,0 168,-65 168,-166l0 -747c0,-133 -89,-219 -233,-219l-1532 0 0 -396 1124 0c117,0 184,-66 184,-171l0 -537c0,-108 -67,-173 -184,-173l-1124 0 0 -415 1545 0c107,0 168,-64 168,-169l0 -786c0,-105 -61,-170 -168,-170l-2570 0c-105,0 -168,62 -168,170l0 3613zm6949 -3664c0,-76 -46,-119 -119,-119l-955 0c-73,0 -118,46 -118,119l0 1339 -1111 0 0 -1339c0,-73 -46,-119 -118,-119l-955 0c-73,0 -119,43 -119,119l0 3711c0,76 46,119 119,119l955 0c72,0 118,-46 118,-119l0 -1334 1111 0 0 1334c0,73 45,119 118,119l955 0c73,0 119,-43 119,-119l0 -3711zm4049 0c0,-76 -46,-119 -119,-119l-954 0c-73,0 -119,46 -119,119l0 1339 -1111 0 0 -1339c0,-73 -45,-119 -118,-119l-955 0c-73,0 -119,43 -119,119l0 3711c0,76 46,119 119,119l955 0c73,0 118,-46 118,-119l0 -1334 1111 0 0 1334c0,73 46,119 119,119l954 0c73,0 119,-43 119,-119l0 -3711zm3572 49c0,-98 -67,-168 -165,-168l-222 0 -1233 0c-849,-10 -1466,552 -1455,1400 0,465 210,863 570,1108l-684 1252c-11,21 -16,44 -16,68 0,67 51,121 124,121l972 0c94,0 129,-25 192,-141l538 -1043 186 0 0 1019c0,100 68,165 176,165l852 0c106,0 165,-60 165,-165l0 -3616zm-1885 1227c0,-208 143,-352 346,-352l346 0 0 757 -346 0c-197,0 -346,-195 -346,-405z"/>
   <path id="1" class="fil1" d="M3829 619c0,-76 -43,-119 -119,-119l-3174 0c-73,0 -119,43 -119,119l0 3711c0,76 46,119 119,119l955 0c72,0 119,-43 119,-119l0 -2694 1029 0 0 2694c0,76 46,119 119,119l952 0c76,0 119,-43 119,-119l0 -3711zm4248 3722c0,-25 -6,-49 -17,-73l-1399 -3614c-35,-94 -122,-154 -210,-154l-704 0c-86,0 -175,57 -216,154l-1401 3613c-8,20 -14,44 -14,72 0,67 46,110 133,110l946 0c101,0 185,-68 209,-151l116 -370 1152 0 117 370c29,89 110,151 206,151l946 0c87,0 136,-43 136,-108zm-2254 -1394l271 -872 273 872 -544 0zm4851 204c-47,0 -93,17 -139,47 -62,43 -140,81 -233,110 -89,30 -170,44 -238,44 -489,8 -905,-394 -895,-871 -10,-478 406,-886 895,-875 73,0 154,17 250,52 94,32 175,73 238,119 38,26 78,39 122,39 48,0 85,-18 110,-53l506 -760c13,-18 21,-45 21,-75 0,-46 -26,-97 -70,-130 -154,-105 -343,-197 -570,-270 -228,-73 -430,-111 -607,-111 -384,0 -736,92 -1055,276 -316,181 -568,429 -754,746 -184,316 -276,662 -276,1042 0,379 92,725 276,1041 186,316 438,565 754,748 319,181 671,274 1055,274 179,0 379,-35 604,-107 224,-70 405,-156 549,-256 57,-40 92,-94 92,-149 0,-18 -6,-38 -16,-53l-499 -768c-29,-40 -70,-60 -120,-60zm4718 1190c0,-25 -6,-49 -17,-73l-1398 -3614c-35,-94 -122,-154 -211,-154l-703 0c-87,0 -176,57 -216,154l-1402 3613c-8,20 -14,44 -14,72 0,67 47,110 133,110l947 0c100,0 184,-68 208,-151l117 -370 1152 0 116 370c30,89 111,151 206,151l946 0c87,0 136,-43 136,-108zm-2254 -1394l271 -872 273 872 -544 0zm8612 1405c0,-36 -11,-71 -33,-103l-1210 -1900 1194 -1638c30,-35 44,-73 44,-113 0,-57 -36,-92 -108,-92l-1098 0c-117,0 -176,11 -244,107l-927 1300 -203 0 0 -1294c0,-76 -45,-119 -119,-119l-951 0c-76,0 -119,46 -119,119l0 1294 -81 0 -927 -1300c-67,-96 -127,-107 -244,-107l-1097 0c-73,0 -109,35 -109,92 0,40 14,78 44,113l1194 1638 -1210 1900c-22,32 -33,67 -33,103 0,57 38,97 106,97l1108 0c62,0 125,-25 160,-68l870 -1388 219 0 0 1337c0,73 43,119 119,119l951 0c74,0 119,-43 119,-119l0 -1337 341 0 870 1388c35,43 97,68 160,68l1108 0c68,0 106,-40 106,-97zm3946 -3733c0,-76 -46,-119 -119,-119l-987 0c-92,0 -171,49 -236,146l-1113 1745 0 -1772c0,-76 -43,-119 -119,-119l-952 0c-76,0 -119,46 -119,119l0 3711c0,76 46,119 119,119l909 0c99,0 183,-49 241,-144l1183 -1898 0 1923c0,76 46,119 119,119l955 0c73,0 119,-43 119,-119l0 -3711zm3538 1282c11,-849 -601,-1411 -1451,-1401l-510 0 -425 0 -433 0c-98,0 -165,70 -165,171l0 3613c0,105 59,165 165,165l852 0c108,0 176,-65 176,-165l0 -989 340 0c850,7 1462,-553 1451,-1394zm-1190 -5c0,100 -33,184 -101,251 -67,68 -149,101 -243,101l-257 0 0 -704 257 0c94,0 176,35 243,103 68,68 101,149 101,249zm4086 1255c-47,0 -93,17 -139,47 -62,43 -140,81 -233,110 -89,30 -170,44 -238,44 -489,8 -905,-394 -895,-871 -10,-478 406,-886 895,-875 73,0 154,17 250,52 94,32 175,73 238,119 38,26 78,39 122,39 48,0 85,-18 110,-53l506 -760c13,-18 21,-45 21,-75 0,-46 -26,-97 -70,-130 -154,-105 -343,-197 -570,-270 -228,-73 -430,-111 -607,-111 -384,0 -735,92 -1055,276 -316,181 -568,429 -754,746 -184,316 -276,662 -276,1042 0,379 92,725 276,1041 186,316 438,565 754,748 320,181 671,274 1055,274 179,0 379,-35 604,-107 224,-70 405,-156 549,-256 57,-40 92,-94 92,-149 0,-18 -6,-38 -16,-53l-498 -768c-30,-40 -71,-60 -121,-60zm4008 -103c11,-841 -600,-1401 -1450,-1393l-341 0 0 -990c0,-100 -67,-165 -175,-165l-852 0c-107,0 -166,60 -166,165l0 3614c0,99 68,170 166,170l433 0 424 0 511 0c850,11 1461,-552 1450,-1401zm-1190 5c0,100 -32,184 -100,252 -68,68 -149,100 -243,100l-258 0 0 -703 258 0c94,0 175,35 243,102 68,69 100,150 100,249zm5405 1299c0,-36 -10,-71 -32,-103l-1211 -1900 1195 -1638c30,-35 43,-73 43,-113 0,-57 -35,-92 -108,-92l-1098 0c-116,0 -176,11 -244,107l-927 1300 -287 0 0 -1294c0,-76 -43,-119 -119,-119l-951 0c-76,0 -120,43 -120,119l0 3711c0,76 44,119 120,119l951 0c76,0 119,-43 119,-119l0 -1337 425 0 871 1388c35,43 98,68 159,68l1109 0c68,0 105,-40 105,-97zm1489 -3733c0,-76 -44,-119 -120,-119l-952 0c-76,0 -119,43 -119,119l0 3711c0,76 43,119 119,119l952 0c76,0 120,-43 120,-119l0 -3711zm5418 0c0,-76 -44,-119 -119,-119l-3174 0c-73,0 -119,43 -119,119l0 3711c0,76 46,119 119,119l954 0c73,0 119,-43 119,-119l0 -2694 1030 0 0 2694c0,76 46,119 119,119l952 0c75,0 119,-43 119,-119l0 -3711zm553 3664c0,101 62,166 168,166l2622 0c99,0 168,-65 168,-166l0 -747c0,-133 -90,-219 -233,-219l-1532 0 0 -396 1124 0c116,0 184,-66 184,-171l0 -537c0,-108 -68,-173 -184,-173l-1124 0 0 -415 1545 0c106,0 168,-64 168,-169l0 -786c0,-105 -62,-170 -168,-170l-2570 0c-106,0 -168,62 -168,170l0 3613zm6438 -2382c11,-849 -600,-1411 -1450,-1401l-511 0 -424 0 -434 0c-97,0 -165,70 -165,171l0 3613c0,105 59,165 165,165l853 0c108,0 175,-65 175,-165l0 -989 341 0c850,7 1461,-553 1450,-1394zm-1190 -5c0,100 -32,184 -101,251 -67,68 -148,101 -242,101l-258 0 0 -704 258 0c94,0 175,35 242,103 69,68 101,149 101,249zm1545 2387c0,101 63,166 169,166l2621 0c100,0 168,-65 168,-166l0 -747c0,-133 -89,-219 -232,-219l-1533 0 0 -396 1125 0c116,0 183,-66 183,-171l0 -537c0,-108 -67,-173 -183,-173l-1125 0 0 -415 1546 0c106,0 168,-64 168,-169l0 -786c0,-105 -62,-170 -168,-170l-2570 0c-106,0 -169,62 -169,170l0 3613zm6584 -1058c0,-381 -187,-708 -501,-872 206,-141 327,-393 327,-670 0,-739 -516,-1183 -1388,-1183l-1449 0c-73,0 -119,43 -119,119l0 3711c0,76 46,119 119,119l1562 0c910,0 1449,-457 1449,-1224zm-1586 -1659c143,0 226,81 226,213 0,138 -83,217 -226,217l-352 0 0 -430 352 0zm394 1534c0,175 -108,280 -284,280l-462 0 0 -543 462 0c181,0 284,97 284,263zm1594 1183c0,101 63,166 168,166l2622 0c100,0 168,-65 168,-166l0 -747c0,-133 -89,-219 -233,-219l-1532 0 0 -396 1124 0c117,0 184,-66 184,-171l0 -537c0,-108 -67,-173 -184,-173l-1124 0 0 -415 1545 0c107,0 168,-64 168,-169l0 -786c0,-105 -61,-170 -168,-170l-2570 0c-105,0 -168,62 -168,170l0 3613zm6146 -1001c0,-444 -189,-787 -506,-930 213,-132 330,-370 330,-705 11,-751 -603,-1232 -1436,-1225 -441,0 -809,136 -1071,371 -40,38 -60,78 -60,121 0,33 11,62 30,92l476 678c30,41 65,62 103,62 35,0 75,-13 124,-42 79,-44 143,-70 198,-84 56,-14 122,-22 197,-22 138,0 240,71 240,189 0,108 -99,176 -231,176l-279 0c-98,0 -163,70 -163,187l0 591c0,108 68,176 184,176l268 0c252,0 375,81 375,243 0,133 -113,207 -332,207 -105,0 -216,-10 -332,-32 -114,-21 -203,-51 -268,-91 -41,-24 -78,-38 -114,-38 -51,0 -97,24 -135,73l-449 562c-38,45 -57,94 -57,151 0,76 38,144 116,200 273,208 666,352 1150,352 962,7 1652,-484 1642,-1262zm369 1001c0,101 63,166 168,166l2622 0c100,0 168,-65 168,-166l0 -747c0,-133 -89,-219 -233,-219l-1532 0 0 -396 1124 0c117,0 184,-66 184,-171l0 -537c0,-108 -67,-173 -184,-173l-1124 0 0 -415 1545 0c107,0 168,-64 168,-169l0 -786c0,-105 -61,-170 -168,-170l-2570 0c-105,0 -168,62 -168,170l0 3613zm6949 -3664c0,-76 -46,-119 -119,-119l-955 0c-73,0 -118,46 -118,119l0 1339 -1111 0 0 -1339c0,-73 -46,-119 -118,-119l-955 0c-73,0 -119,43 -119,119l0 3711c0,76 46,119 119,119l955 0c72,0 118,-46 118,-119l0 -1334 1111 0 0 1334c0,73 45,119 118,119l955 0c73,0 119,-43 119,-119l0 -3711zm4049 0c0,-76 -46,-119 -119,-119l-954 0c-73,0 -119,46 -119,119l0 1339 -1111 0 0 -1339c0,-73 -45,-119 -118,-119l-955 0c-73,0 -119,43 -119,119l0 3711c0,76 46,119 119,119l955 0c73,0 118,-46 118,-119l0 -1334 1111 0 0 1334c0,73 46,119 119,119l954 0c73,0 119,-43 119,-119l0 -3711zm3572 49c0,-98 -67,-168 -165,-168l-222 0 -1233 0c-849,-10 -1466,552 -1455,1400 0,465 210,863 570,1108l-684 1252c-11,21 -16,44 -16,68 0,67 51,121 124,121l972 0c94,0 129,-25 192,-141l538 -1043 186 0 0 1019c0,100 68,165 176,165l852 0c106,0 165,-60 165,-165l0 -3616zm-1885 1227c0,-208 143,-352 346,-352l346 0 0 757 -346 0c-197,0 -346,-195 -346,-405z"/>
  </g>
 </g>
</svg>
