<?xml version="1.0" encoding="UTF-8"?>
<!DOCTYPE svg PUBLIC "-//W3C//DTD SVG 1.1//EN" "http://www.w3.org/Graphics/SVG/1.1/DTD/svg11.dtd">
<!-- Creator: CorelDRAW X7 -->
<svg xmlns="http://www.w3.org/2000/svg" xml:space="preserve" width="45.3189mm" height="6.4231mm" version="1.1" style="shape-rendering:geometricPrecision; text-rendering:geometricPrecision; image-rendering:optimizeQuality; fill-rule:evenodd; clip-rule:evenodd"
viewBox="0 0 6157 873"
 xmlns:xlink="http://www.w3.org/1999/xlink">
 <defs>
  <style type="text/css">
   <![CDATA[
    .str0 {stroke:#2B2A29;stroke-width:135.86;stroke-linecap:round;stroke-linejoin:round}
    .fil0 {fill:none;fill-rule:nonzero}
    .fil1 {fill:#FFED00;fill-rule:nonzero}
   ]]>
  </style>
 </defs>
 <g id="Слой_x0020_1">
  <metadata id="CorelCorpID_0Corel-Layer"/>
  <g>
   <path class="fil0 str0" d="M387 68c-197,-2 -320,141 -319,368 -1,227 122,371 319,369 197,2 321,-142 319,-369 2,-227 -122,-370 -319,-368zm1 546c-79,0 -127,-67 -127,-178 0,-110 48,-177 127,-177 78,0 127,67 127,177 0,110 -49,178 -127,178zm895 -59c1,-141 -88,-254 -230,-252 -17,0 -37,6 -58,16l8 -50 210 0c20,0 36,-17 36,-39l0 -112c0,-21 -18,-37 -39,-37l-349 0c-17,0 -32,14 -34,34l-36 356c-2,21 16,42 39,42l112 0c15,0 21,-2 29,-7 4,-2 8,-4 12,-6 6,-2 12,-3 20,-4 7,-2 19,-2 35,-2 30,0 54,24 54,61 0,36 -25,59 -68,59 -16,0 -34,-5 -54,-15 -20,-10 -37,-23 -50,-39 -8,-9 -19,-15 -30,-15 -8,0 -14,2 -20,7l-87 76c-10,9 -16,22 -16,33 0,8 2,14 5,19 44,71 162,126 254,125 47,0 91,-12 130,-34 39,-22 70,-52 93,-90 23,-39 34,-80 34,-126zm358 -487c-197,-2 -321,141 -319,368 -2,227 122,371 319,369 197,2 321,-142 319,-369 2,-227 -122,-370 -319,-368zm1 546c-79,0 -127,-67 -127,-178 0,-110 48,-177 127,-177 78,0 127,67 127,177 0,110 -49,178 -127,178zm904 191c171,0 274,-84 274,-220 0,-74 -35,-132 -99,-167 43,-33 66,-81 66,-141 0,-130 -91,-209 -241,-209 -149,0 -239,81 -239,214 0,58 22,104 64,136 -64,35 -99,93 -99,167 0,136 103,220 274,220zm-43 -509c0,-26 16,-42 43,-42 27,0 43,16 43,42 0,25 -16,41 -43,41 -27,0 -43,-16 -43,-41zm108 266c0,34 -24,56 -65,56 -40,0 -63,-21 -63,-56 0,-38 24,-62 67,-62 38,0 61,25 61,62zm830 -27c0,-18 -12,-30 -31,-30l-49 0 0 -391c0,-21 -11,-33 -32,-33l-168 0c-19,0 -28,6 -38,22l-253 404c-8,13 -10,20 -10,33l0 128c0,15 19,29 36,29l274 0 0 65c0,19 8,27 27,27l139 0c17,0 25,-9 25,-26l0 -66 47 0c23,0 33,-14 33,-41l0 -121zm-348 -29l77 -121 0 121 -77 0zm912 119c0,-22 -13,-35 -35,-35l-170 0 100 -80c26,-22 48,-50 63,-84 15,-34 23,-71 23,-109 1,-147 -98,-250 -252,-249 -44,0 -86,12 -126,35 -40,24 -73,57 -99,98 -3,6 -5,11 -5,17 0,8 3,14 11,19l117 79c7,5 14,7 20,7 9,0 15,-4 20,-13 15,-27 38,-43 62,-43 33,0 53,19 53,50 0,18 -12,40 -31,59l-264 255c-5,6 -8,17 -8,33l0 95c0,18 15,30 38,30l451 0c20,0 32,-12 32,-32l0 -132zm617 -509c0,-23 -11,-35 -33,-35l-103 0c-18,0 -37,5 -59,16l-95 47c-11,7 -16,18 -16,38l0 137c0,15 9,26 23,26 5,0 10,-1 15,-4l77 -33 0 443c0,23 15,38 38,38l113 0c23,0 40,-16 40,-39l0 -634zm378 0c0,-23 -11,-35 -32,-35l-103 0c-18,0 -37,5 -59,16l-95 47c-12,7 -17,18 -17,38l0 137c0,15 10,26 24,26 4,0 9,-1 14,-4l77 -33 0 443c0,23 15,38 39,38l112 0c24,0 40,-16 40,-39l0 -634zm379 0c0,-23 -11,-35 -32,-35l-103 0c-18,0 -38,5 -59,16l-95 47c-12,7 -17,18 -17,38l0 137c0,15 10,26 23,26 5,0 10,-1 15,-4l77 -33 0 443c0,23 15,38 39,38l112 0c24,0 40,-16 40,-39l0 -634zm391 -48c-197,-2 -321,141 -319,368 -2,227 122,371 319,369 196,2 320,-142 319,-369 1,-227 -123,-370 -319,-368zm1 546c-79,0 -127,-67 -127,-178 0,-110 48,-177 127,-177 78,0 127,67 127,177 0,110 -49,178 -127,178z"/>
   <path id="1" class="fil1" d="M387 68c-197,-2 -320,141 -319,368 -1,227 122,371 319,369 197,2 321,-142 319,-369 2,-227 -122,-370 -319,-368zm1 546c-79,0 -127,-67 -127,-178 0,-110 48,-177 127,-177 78,0 127,67 127,177 0,110 -49,178 -127,178zm895 -59c1,-141 -88,-254 -230,-252 -17,0 -37,6 -58,16l8 -50 210 0c20,0 36,-17 36,-39l0 -112c0,-21 -18,-37 -39,-37l-349 0c-17,0 -32,14 -34,34l-36 356c-2,21 16,42 39,42l112 0c15,0 21,-2 29,-7 4,-2 8,-4 12,-6 6,-2 12,-3 20,-4 7,-2 19,-2 35,-2 30,0 54,24 54,61 0,36 -25,59 -68,59 -16,0 -34,-5 -54,-15 -20,-10 -37,-23 -50,-39 -8,-9 -19,-15 -30,-15 -8,0 -14,2 -20,7l-87 76c-10,9 -16,22 -16,33 0,8 2,14 5,19 44,71 162,126 254,125 47,0 91,-12 130,-34 39,-22 70,-52 93,-90 23,-39 34,-80 34,-126zm358 -487c-197,-2 -321,141 -319,368 -2,227 122,371 319,369 197,2 321,-142 319,-369 2,-227 -122,-370 -319,-368zm1 546c-79,0 -127,-67 -127,-178 0,-110 48,-177 127,-177 78,0 127,67 127,177 0,110 -49,178 -127,178zm904 191c171,0 274,-84 274,-220 0,-74 -35,-132 -99,-167 43,-33 66,-81 66,-141 0,-130 -91,-209 -241,-209 -149,0 -239,81 -239,214 0,58 22,104 64,136 -64,35 -99,93 -99,167 0,136 103,220 274,220zm-43 -509c0,-26 16,-42 43,-42 27,0 43,16 43,42 0,25 -16,41 -43,41 -27,0 -43,-16 -43,-41zm108 266c0,34 -24,56 -65,56 -40,0 -63,-21 -63,-56 0,-38 24,-62 67,-62 38,0 61,25 61,62zm830 -27c0,-18 -12,-30 -31,-30l-49 0 0 -391c0,-21 -11,-33 -32,-33l-168 0c-19,0 -28,6 -38,22l-253 404c-8,13 -10,20 -10,33l0 128c0,15 19,29 36,29l274 0 0 65c0,19 8,27 27,27l139 0c17,0 25,-9 25,-26l0 -66 47 0c23,0 33,-14 33,-41l0 -121zm-348 -29l77 -121 0 121 -77 0zm912 119c0,-22 -13,-35 -35,-35l-170 0 100 -80c26,-22 48,-50 63,-84 15,-34 23,-71 23,-109 1,-147 -98,-250 -252,-249 -44,0 -86,12 -126,35 -40,24 -73,57 -99,98 -3,6 -5,11 -5,17 0,8 3,14 11,19l117 79c7,5 14,7 20,7 9,0 15,-4 20,-13 15,-27 38,-43 62,-43 33,0 53,19 53,50 0,18 -12,40 -31,59l-264 255c-5,6 -8,17 -8,33l0 95c0,18 15,30 38,30l451 0c20,0 32,-12 32,-32l0 -132zm617 -509c0,-23 -11,-35 -33,-35l-103 0c-18,0 -37,5 -59,16l-95 47c-11,7 -16,18 -16,38l0 137c0,15 9,26 23,26 5,0 10,-1 15,-4l77 -33 0 443c0,23 15,38 38,38l113 0c23,0 40,-16 40,-39l0 -634zm378 0c0,-23 -11,-35 -32,-35l-103 0c-18,0 -37,5 -59,16l-95 47c-12,7 -17,18 -17,38l0 137c0,15 10,26 24,26 4,0 9,-1 14,-4l77 -33 0 443c0,23 15,38 39,38l112 0c24,0 40,-16 40,-39l0 -634zm379 0c0,-23 -11,-35 -32,-35l-103 0c-18,0 -38,5 -59,16l-95 47c-12,7 -17,18 -17,38l0 137c0,15 10,26 23,26 5,0 10,-1 15,-4l77 -33 0 443c0,23 15,38 39,38l112 0c24,0 40,-16 40,-39l0 -634zm391 -48c-197,-2 -321,141 -319,368 -2,227 122,371 319,369 196,2 320,-142 319,-369 1,-227 -123,-370 -319,-368zm1 546c-79,0 -127,-67 -127,-178 0,-110 48,-177 127,-177 78,0 127,67 127,177 0,110 -49,178 -127,178z"/>
  </g>
 </g>
</svg>
