<?xml version="1.0" encoding="UTF-8"?>
<!DOCTYPE svg PUBLIC "-//W3C//DTD SVG 1.1//EN" "http://www.w3.org/Graphics/SVG/1.1/DTD/svg11.dtd">
<!-- Creator: CorelDRAW X7 -->
<svg xmlns="http://www.w3.org/2000/svg" xml:space="preserve" width="59.137mm" height="13.1467mm" version="1.1" style="shape-rendering:geometricPrecision; text-rendering:geometricPrecision; image-rendering:optimizeQuality; fill-rule:evenodd; clip-rule:evenodd"
viewBox="0 0 4099 911"
 xmlns:xlink="http://www.w3.org/1999/xlink">
 <defs>
  <style type="text/css">
   <![CDATA[
    .str0 {stroke:#FEFEFE;stroke-width:34.6556;stroke-linecap:round;stroke-linejoin:round}
    .fil0 {fill:none;fill-rule:nonzero}
    .fil1 {fill:#2B2A29;fill-rule:nonzero}
   ]]>
  </style>
 </defs>
 <g id="Слой_x0020_1">
  <metadata id="CorelCorpID_0Corel-Layer"/>
  <g>
   <path class="fil0 str0" d="M244 209c1,-47 -41,-81 -98,-80l-34 0 0 -29 94 0c5,0 8,-4 8,-10l0 -57c0,-6 -3,-9 -8,-9l-167 0c-5,0 -8,3 -8,8l0 265c0,5 3,9 8,9l107 0c58,0 99,-41 98,-97zm-81 0c0,12 -7,20 -17,20l-34 0 0 -37 34 0c10,0 17,7 17,17zm311 -85c0,-61 -41,-101 -99,-100l-34 0 -29 0 -29 0c-7,0 -12,5 -12,12l0 258c0,7 4,12 12,12l57 0c8,0 12,-5 12,-12l0 -71 23 0c58,1 99,-39 99,-99zm-81 -1c0,7 -2,13 -7,18 -4,5 -10,7 -16,7l-18 0 0 -50 18 0c6,0 12,3 16,7 5,5 7,11 7,18zm235 -105c-26,0 -50,7 -71,20 -21,13 -38,30 -51,53 -12,22 -18,47 -18,74 0,27 6,52 18,74 13,23 30,40 51,53 21,13 45,20 71,20 25,0 49,-7 70,-20 22,-13 38,-30 51,-53 12,-22 18,-47 18,-74 0,-27 -6,-52 -18,-74 -13,-23 -29,-40 -51,-53 -21,-13 -45,-20 -70,-20zm0 209c-33,0 -60,-28 -60,-62 0,-34 27,-63 60,-62 32,-1 59,28 59,62 0,34 -27,62 -59,62zm403 -195c0,-5 -3,-8 -8,-8l-64 0c-5,0 -8,3 -8,8l0 96 -76 0 0 -96c0,-5 -3,-8 -8,-8l-64 0c-5,0 -9,3 -9,8l0 265c0,5 4,9 9,9l64 0c5,0 8,-4 8,-9l0 -95 76 0 0 95c0,5 3,9 8,9l64 0c5,0 8,-4 8,-9l0 -265zm432 132c0,-27 -6,-51 -19,-74 -12,-22 -29,-40 -50,-53 -22,-13 -45,-20 -71,-20 -64,0 -121,47 -135,110l-38 0 0 -95c0,-5 -3,-8 -8,-8l-65 0c-5,0 -8,3 -8,8l0 265c0,5 3,9 8,9l65 0c5,0 8,-4 8,-9l0 -95 38 0c14,63 71,110 135,109 26,0 49,-6 71,-19 21,-13 38,-31 50,-53 13,-23 19,-48 19,-75zm-81 0c1,34 -26,63 -59,62 -32,1 -60,-28 -59,-62 -1,-34 27,-62 59,-62 33,0 60,28 59,62zm320 54c0,-27 -12,-50 -34,-62 14,-10 23,-28 23,-48 0,-53 -35,-84 -94,-84l-99 0c-5,0 -8,3 -8,8l0 265c0,5 3,9 8,9l106 0c62,0 98,-33 98,-88zm-107 -118c10,0 15,5 15,15 0,10 -5,15 -15,15l-24 0 0 -30 24 0zm27 109c0,13 -8,20 -20,20l-31 0 0 -39 31 0c13,0 20,7 20,19zm358 89c0,-2 0,-4 -1,-5l-95 -258c-2,-7 -8,-11 -14,-11l-48 0c-6,0 -12,4 -14,11l-95 258c-1,1 -1,3 -1,5 0,4 3,8 9,8l64 0c7,0 12,-5 14,-11l8 -27 78 0 8 27c2,6 7,11 14,11l64 0c6,0 9,-4 9,-8zm-153 -100l19 -62 18 62 -37 0zm410 -166c0,-5 -3,-8 -8,-8l-65 0c-5,0 -8,3 -8,8l0 96 -75 0 0 -96c0,-5 -3,-8 -8,-8l-65 0c-5,0 -8,3 -8,8l0 265c0,5 3,9 8,9l65 0c5,0 8,-4 8,-9l0 -95 75 0 0 95c0,5 3,9 8,9l65 0c5,0 8,-4 8,-9l0 -265zm275 0c0,-5 -4,-8 -9,-8l-64 0c-5,0 -8,3 -8,8l0 96 -76 0 0 -96c0,-5 -3,-8 -8,-8l-64 0c-5,0 -8,3 -8,8l0 265c0,5 3,9 8,9l64 0c5,0 8,-4 8,-9l0 -95 76 0 0 95c0,5 3,9 8,9l64 0c5,0 9,-4 9,-9l0 -265zm242 4c0,-7 -5,-12 -12,-12l-15 0 -83 0c-58,-1 -100,39 -99,100 0,33 14,61 39,79l-47 89c0,2 -1,3 -1,5 0,5 4,9 9,9l66 0c6,0 8,-2 13,-11l36 -74 13 0 0 73c0,7 4,12 12,12l57 0c8,0 12,-5 12,-12l0 -258zm-128 87c0,-15 10,-25 23,-25l24 0 0 54 -24 0c-13,0 -23,-14 -23,-29zm572 183c8,0 13,-5 12,-12l-32 -259c-1,-7 -4,-11 -11,-11l-77 0c-7,0 -12,4 -14,11l-31 152 -31 -152c-2,-7 -6,-11 -13,-11l-78 0c-7,0 -11,4 -11,11l-32 259c-1,7 4,12 12,12l60 0c7,0 11,-4 12,-12l13 -126 26 128c2,9 5,12 12,12l60 0c8,0 10,-3 13,-12l25 -128 14 126c0,8 4,12 11,12l60 0zm120 -274c0,-5 -3,-8 -8,-8l-64 0c-5,0 -8,3 -8,8l0 265c0,5 3,9 8,9l64 0c5,0 8,-4 8,-9l0 -265zm210 181c-3,0 -6,1 -9,3 -5,3 -10,6 -16,8 -6,2 -12,3 -16,3 -33,1 -62,-28 -61,-62 -1,-34 28,-63 61,-62 5,0 10,1 17,3 6,3 12,5 16,9 2,2 5,3 8,3 3,0 6,-2 8,-4l34 -54c1,-2 1,-4 1,-6 0,-3 -2,-7 -4,-9 -11,-8 -24,-14 -39,-19 -16,-6 -29,-8 -41,-8 -26,0 -50,6 -72,19 -21,13 -38,31 -51,54 -12,22 -19,47 -19,74 0,27 7,52 19,74 13,23 30,41 51,54 22,13 46,19 72,19 12,0 25,-2 41,-7 15,-5 27,-11 37,-19 4,-2 6,-6 6,-10 0,-2 0,-3 -1,-4l-34 -55c-2,-3 -4,-4 -8,-4zm329 22c0,-4 -2,-9 -9,-9l-19 0 0 -194c0,-5 -3,-8 -8,-8l-65 0c-5,0 -8,3 -8,8l0 192 -70 0 0 -192c0,-5 -3,-8 -8,-8l-64 0c-5,0 -9,3 -9,8l0 265c0,5 4,9 9,9l176 0 0 40c0,5 4,10 9,10l58 0c4,0 8,-3 8,-10l0 -111zm225 -29c0,-61 -41,-101 -99,-100l-23 0 0 -71c0,-7 -4,-11 -12,-11l-58 0c-7,0 -11,4 -11,11l0 258c0,7 5,13 11,13l30 0 29 0 34 0c58,0 99,-40 99,-100zm-81 0c0,7 -2,13 -7,18 -5,5 -10,7 -16,7l-18 0 0 -50 18 0c6,0 11,2 16,7 5,5 7,11 7,18z"/>
   <path id="1" class="fil1" d="M244 209c1,-47 -41,-81 -98,-80l-34 0 0 -29 94 0c5,0 8,-4 8,-10l0 -57c0,-6 -3,-9 -8,-9l-167 0c-5,0 -8,3 -8,8l0 265c0,5 3,9 8,9l107 0c58,0 99,-41 98,-97zm-81 0c0,12 -7,20 -17,20l-34 0 0 -37 34 0c10,0 17,7 17,17zm311 -85c0,-61 -41,-101 -99,-100l-34 0 -29 0 -29 0c-7,0 -12,5 -12,12l0 258c0,7 4,12 12,12l57 0c8,0 12,-5 12,-12l0 -71 23 0c58,1 99,-39 99,-99zm-81 -1c0,7 -2,13 -7,18 -4,5 -10,7 -16,7l-18 0 0 -50 18 0c6,0 12,3 16,7 5,5 7,11 7,18zm235 -105c-26,0 -50,7 -71,20 -21,13 -38,30 -51,53 -12,22 -18,47 -18,74 0,27 6,52 18,74 13,23 30,40 51,53 21,13 45,20 71,20 25,0 49,-7 70,-20 22,-13 38,-30 51,-53 12,-22 18,-47 18,-74 0,-27 -6,-52 -18,-74 -13,-23 -29,-40 -51,-53 -21,-13 -45,-20 -70,-20zm0 209c-33,0 -60,-28 -60,-62 0,-34 27,-63 60,-62 32,-1 59,28 59,62 0,34 -27,62 -59,62zm403 -195c0,-5 -3,-8 -8,-8l-64 0c-5,0 -8,3 -8,8l0 96 -76 0 0 -96c0,-5 -3,-8 -8,-8l-64 0c-5,0 -9,3 -9,8l0 265c0,5 4,9 9,9l64 0c5,0 8,-4 8,-9l0 -95 76 0 0 95c0,5 3,9 8,9l64 0c5,0 8,-4 8,-9l0 -265zm432 132c0,-27 -6,-51 -19,-74 -12,-22 -29,-40 -50,-53 -22,-13 -45,-20 -71,-20 -64,0 -121,47 -135,110l-38 0 0 -95c0,-5 -3,-8 -8,-8l-65 0c-5,0 -8,3 -8,8l0 265c0,5 3,9 8,9l65 0c5,0 8,-4 8,-9l0 -95 38 0c14,63 71,110 135,109 26,0 49,-6 71,-19 21,-13 38,-31 50,-53 13,-23 19,-48 19,-75zm-81 0c1,34 -26,63 -59,62 -32,1 -60,-28 -59,-62 -1,-34 27,-62 59,-62 33,0 60,28 59,62zm320 54c0,-27 -12,-50 -34,-62 14,-10 23,-28 23,-48 0,-53 -35,-84 -94,-84l-99 0c-5,0 -8,3 -8,8l0 265c0,5 3,9 8,9l106 0c62,0 98,-33 98,-88zm-107 -118c10,0 15,5 15,15 0,10 -5,15 -15,15l-24 0 0 -30 24 0zm27 109c0,13 -8,20 -20,20l-31 0 0 -39 31 0c13,0 20,7 20,19zm358 89c0,-2 0,-4 -1,-5l-95 -258c-2,-7 -8,-11 -14,-11l-48 0c-6,0 -12,4 -14,11l-95 258c-1,1 -1,3 -1,5 0,4 3,8 9,8l64 0c7,0 12,-5 14,-11l8 -27 78 0 8 27c2,6 7,11 14,11l64 0c6,0 9,-4 9,-8zm-153 -100l19 -62 18 62 -37 0zm410 -166c0,-5 -3,-8 -8,-8l-65 0c-5,0 -8,3 -8,8l0 96 -75 0 0 -96c0,-5 -3,-8 -8,-8l-65 0c-5,0 -8,3 -8,8l0 265c0,5 3,9 8,9l65 0c5,0 8,-4 8,-9l0 -95 75 0 0 95c0,5 3,9 8,9l65 0c5,0 8,-4 8,-9l0 -265zm275 0c0,-5 -4,-8 -9,-8l-64 0c-5,0 -8,3 -8,8l0 96 -76 0 0 -96c0,-5 -3,-8 -8,-8l-64 0c-5,0 -8,3 -8,8l0 265c0,5 3,9 8,9l64 0c5,0 8,-4 8,-9l0 -95 76 0 0 95c0,5 3,9 8,9l64 0c5,0 9,-4 9,-9l0 -265zm242 4c0,-7 -5,-12 -12,-12l-15 0 -83 0c-58,-1 -100,39 -99,100 0,33 14,61 39,79l-47 89c0,2 -1,3 -1,5 0,5 4,9 9,9l66 0c6,0 8,-2 13,-11l36 -74 13 0 0 73c0,7 4,12 12,12l57 0c8,0 12,-5 12,-12l0 -258zm-128 87c0,-15 10,-25 23,-25l24 0 0 54 -24 0c-13,0 -23,-14 -23,-29zm572 183c8,0 13,-5 12,-12l-32 -259c-1,-7 -4,-11 -11,-11l-77 0c-7,0 -12,4 -14,11l-31 152 -31 -152c-2,-7 -6,-11 -13,-11l-78 0c-7,0 -11,4 -11,11l-32 259c-1,7 4,12 12,12l60 0c7,0 11,-4 12,-12l13 -126 26 128c2,9 5,12 12,12l60 0c8,0 10,-3 13,-12l25 -128 14 126c0,8 4,12 11,12l60 0zm120 -274c0,-5 -3,-8 -8,-8l-64 0c-5,0 -8,3 -8,8l0 265c0,5 3,9 8,9l64 0c5,0 8,-4 8,-9l0 -265zm210 181c-3,0 -6,1 -9,3 -5,3 -10,6 -16,8 -6,2 -12,3 -16,3 -33,1 -62,-28 -61,-62 -1,-34 28,-63 61,-62 5,0 10,1 17,3 6,3 12,5 16,9 2,2 5,3 8,3 3,0 6,-2 8,-4l34 -54c1,-2 1,-4 1,-6 0,-3 -2,-7 -4,-9 -11,-8 -24,-14 -39,-19 -16,-6 -29,-8 -41,-8 -26,0 -50,6 -72,19 -21,13 -38,31 -51,54 -12,22 -19,47 -19,74 0,27 7,52 19,74 13,23 30,41 51,54 22,13 46,19 72,19 12,0 25,-2 41,-7 15,-5 27,-11 37,-19 4,-2 6,-6 6,-10 0,-2 0,-3 -1,-4l-34 -55c-2,-3 -4,-4 -8,-4zm329 22c0,-4 -2,-9 -9,-9l-19 0 0 -194c0,-5 -3,-8 -8,-8l-65 0c-5,0 -8,3 -8,8l0 192 -70 0 0 -192c0,-5 -3,-8 -8,-8l-64 0c-5,0 -9,3 -9,8l0 265c0,5 4,9 9,9l176 0 0 40c0,5 4,10 9,10l58 0c4,0 8,-3 8,-10l0 -111zm225 -29c0,-61 -41,-101 -99,-100l-23 0 0 -71c0,-7 -4,-11 -12,-11l-58 0c-7,0 -11,4 -11,11l0 258c0,7 5,13 11,13l30 0 29 0 34 0c58,0 99,-40 99,-100zm-81 0c0,7 -2,13 -7,18 -5,5 -10,7 -16,7l-18 0 0 -50 18 0c6,0 11,2 16,7 5,5 7,11 7,18z"/>
  </g>
  <g>
   <path class="fil0 str0" d="M192 744c0,-21 -10,-36 -27,-41 16,-4 26,-17 26,-36 0,-40 -32,-64 -85,-64l-2 0c-26,0 -52,8 -68,21 -5,4 -7,8 -7,12 0,2 1,4 2,6l22 33c2,5 6,6 10,6 2,0 5,0 7,-1 7,-4 18,-6 31,-6l3 0c4,0 6,1 6,3 0,2 -2,3 -5,3l-15 0c-8,0 -13,5 -13,12l0 28c0,7 5,12 12,12l16 0c3,0 5,1 5,4 0,2 -2,3 -5,3l-4 0c-14,0 -30,-4 -41,-11 -2,-1 -4,-2 -6,-2 -4,0 -8,2 -11,7l-23 38c-2,2 -3,5 -3,7 0,4 3,8 7,11 21,12 52,20 80,20l2 0c53,0 86,-24 86,-65zm206 -125c0,-5 -3,-9 -8,-9l-48 0c-3,0 -5,2 -6,4l-7 11c-12,-14 -28,-21 -47,-21 -48,-1 -82,43 -81,103 -1,59 33,103 81,102 19,0 36,-7 47,-22l7 11c1,2 3,3 6,3l48 0c5,0 8,-4 8,-9l0 -173zm-79 87c0,12 -9,22 -21,22 -12,0 -21,-10 -21,-22 0,-12 9,-22 21,-22 12,0 21,10 21,22zm407 -87c0,-5 -3,-9 -8,-9l-66 0c-5,0 -8,4 -8,9l0 47 -23 0 0 -47c0,-5 -3,-9 -8,-9l-65 0c-6,0 -8,4 -8,9l0 174c0,6 2,9 8,9l65 0c5,0 8,-3 8,-9l0 -48 23 0 0 48c0,6 3,9 8,9l66 0c5,0 8,-3 8,-9l0 -174zm120 -15c-18,0 -35,4 -51,14 -15,9 -27,21 -36,37 -9,16 -14,33 -14,52 -1,55 46,104 101,102 53,2 101,-47 100,-102 1,-56 -46,-105 -100,-103zm-1 124c-11,0 -21,-9 -21,-22 0,-12 10,-22 21,-22 12,0 21,10 21,22 0,13 -9,22 -21,22zm367 74c7,0 11,-4 10,-11l-24 -169c-1,-7 -5,-12 -11,-12l-81 0c-5,0 -9,4 -10,11l-7 63 -7 -63c0,-7 -5,-11 -10,-11l-80 0c-6,0 -10,5 -11,12l-25 169c-1,7 4,11 11,11l58 0c7,0 10,-4 11,-11l7 -63 5 64c1,7 4,10 10,10l62 0c7,0 10,-3 11,-10l5 -64 7 63c1,7 4,11 10,11l59 0zm191 -77c16,-2 24,-14 24,-32 0,-51 -39,-90 -94,-89 -55,-2 -101,47 -100,103 -1,55 46,104 101,102 23,0 46,-8 63,-22 2,-2 4,-4 4,-7 0,-2 -1,-4 -2,-6 -12,-17 -19,-28 -23,-34 -3,-3 -5,-5 -7,-5 -2,0 -4,1 -5,2 -8,5 -17,8 -28,8 -15,0 -27,-8 -29,-20l95 0 1 0zm-96 -34c3,-12 13,-21 24,-21 12,0 22,9 24,21l-48 0zm336 15c1,-60 -33,-104 -81,-103 -22,0 -40,10 -52,28l-10 -17c-2,-2 -4,-3 -7,-3l-39 0c-5,0 -8,3 -8,9l0 265c0,5 3,9 8,9l65 0c5,0 8,-4 8,-9l0 -87c10,7 22,11 35,11 48,1 82,-44 81,-103zm-76 0c0,12 -9,22 -21,22 -12,0 -21,-10 -21,-22 0,-12 9,-22 21,-22 12,0 21,10 21,22zm186 -102c-18,0 -35,4 -51,14 -15,9 -27,21 -36,37 -9,16 -14,33 -14,52 -1,55 47,104 101,102 53,2 101,-47 100,-102 1,-56 -46,-105 -100,-103zm0 124c-12,0 -21,-9 -21,-22 0,-12 9,-22 21,-22 11,0 20,10 20,22 0,13 -9,22 -20,22zm366 74c7,0 11,-4 11,-11l-25 -169c-1,-7 -5,-12 -11,-12l-80 0c-6,0 -10,4 -11,11l-6 63 -7 -63c-1,-7 -5,-11 -11,-11l-80 0c-6,0 -10,5 -11,12l-25 169c-1,7 4,11 11,11l58 0c7,0 10,-4 11,-11l7 -63 5 64c1,7 4,10 10,10l63 0c6,0 9,-3 10,-10l5 -64 7 63c1,7 4,11 11,11l58 0zm140 -192c-5,0 -11,6 -11,13l0 59c0,8 4,12 11,12l41 0 0 93c0,9 4,15 11,15l58 0c8,0 13,-6 13,-15l0 -93 42 0c5,0 10,-5 10,-13l0 -60c0,-7 -3,-11 -10,-11l-165 0zm351 115c16,-2 23,-14 23,-32 1,-51 -39,-90 -93,-89 -55,-2 -101,47 -100,103 -2,55 46,104 100,102 23,0 46,-8 63,-22 3,-2 4,-4 4,-7 0,-2 0,-4 -2,-6 -11,-17 -19,-28 -23,-34 -2,-3 -4,-5 -7,-5 -2,0 -3,1 -5,2 -7,5 -17,8 -28,8 -15,0 -26,-8 -29,-20l96 0 1 0zm-96 -34c3,-12 12,-21 24,-21 12,0 21,9 24,21l-48 0zm157 14c-1,10 -3,16 -7,16 -1,0 -3,0 -6,0 -3,-1 -4,-1 -5,-1 -7,0 -11,4 -11,10l0 60c0,6 4,10 11,12 2,1 6,1 13,2 6,1 12,1 17,1 16,0 30,-5 43,-15 13,-10 21,-28 24,-54l3 -40 19 0 0 94c0,8 4,12 11,12l61 0c6,0 10,-5 10,-12l0 -168c0,-7 -5,-12 -13,-12l-149 1c-10,0 -17,8 -17,21l-4 73zm373 20c16,-2 23,-14 23,-32 1,-51 -39,-90 -93,-89 -55,-2 -101,47 -100,103 -1,55 46,104 101,102 23,0 45,-8 63,-22 2,-2 3,-4 3,-7 0,-2 0,-4 -2,-6 -11,-17 -18,-28 -22,-34 -3,-3 -5,-5 -7,-5 -2,0 -4,1 -6,2 -7,5 -16,8 -28,8 -14,0 -26,-8 -28,-20l95 0 1 0zm-96 -34c3,-12 13,-21 24,-21 12,0 22,9 24,21l-48 0zm309 117c62,-6 99,-44 99,-102 0,-58 -37,-96 -99,-102l0 -38c0,-5 -3,-8 -8,-8l-65 0c-5,0 -8,3 -8,8l0 38c-63,7 -100,44 -100,102 0,58 37,96 100,102l0 38c0,5 3,8 8,8l65 0c5,0 8,-3 8,-8l0 -38zm18 -102c0,11 -7,19 -18,23l0 -47c11,5 18,13 18,24zm-99 23c-12,-4 -18,-12 -18,-23 0,-11 6,-19 18,-24l0 47zm290 -125c-18,0 -35,4 -50,14 -16,9 -28,21 -37,37 -9,16 -13,33 -13,52 -2,55 46,104 100,102 54,2 101,-47 100,-102 1,-56 -46,-105 -100,-103zm0 124c-12,0 -21,-9 -21,-22 0,-12 9,-22 21,-22 11,0 20,10 20,22 0,13 -9,22 -20,22zm306 -109c0,-5 -3,-9 -8,-9l-66 0c-5,0 -8,4 -8,9l0 47 -23 0 0 -47c0,-5 -3,-9 -8,-9l-66 0c-5,0 -8,4 -8,9l0 174c0,6 3,9 8,9l66 0c5,0 8,-3 8,-9l0 -48 23 0 0 48c0,6 3,9 8,9l66 0c5,0 8,-3 8,-9l0 -174zm218 -1c0,-5 -4,-8 -7,-8l-70 0c-5,0 -10,4 -11,9l-15 71 -14 -71c-1,-5 -6,-9 -11,-9l-70 0c-4,0 -7,3 -7,8 0,2 1,3 1,5l60 156 -38 99c-1,3 -2,5 -2,7 0,6 4,9 13,9l58 0c5,0 9,-3 11,-8l36 -92c0,0 0,0 0,0l65 -171c0,-2 1,-3 1,-5z"/>
   <path id="1" class="fil1" d="M192 744c0,-21 -10,-36 -27,-41 16,-4 26,-17 26,-36 0,-40 -32,-64 -85,-64l-2 0c-26,0 -52,8 -68,21 -5,4 -7,8 -7,12 0,2 1,4 2,6l22 33c2,5 6,6 10,6 2,0 5,0 7,-1 7,-4 18,-6 31,-6l3 0c4,0 6,1 6,3 0,2 -2,3 -5,3l-15 0c-8,0 -13,5 -13,12l0 28c0,7 5,12 12,12l16 0c3,0 5,1 5,4 0,2 -2,3 -5,3l-4 0c-14,0 -30,-4 -41,-11 -2,-1 -4,-2 -6,-2 -4,0 -8,2 -11,7l-23 38c-2,2 -3,5 -3,7 0,4 3,8 7,11 21,12 52,20 80,20l2 0c53,0 86,-24 86,-65zm206 -125c0,-5 -3,-9 -8,-9l-48 0c-3,0 -5,2 -6,4l-7 11c-12,-14 -28,-21 -47,-21 -48,-1 -82,43 -81,103 -1,59 33,103 81,102 19,0 36,-7 47,-22l7 11c1,2 3,3 6,3l48 0c5,0 8,-4 8,-9l0 -173zm-79 87c0,12 -9,22 -21,22 -12,0 -21,-10 -21,-22 0,-12 9,-22 21,-22 12,0 21,10 21,22zm407 -87c0,-5 -3,-9 -8,-9l-66 0c-5,0 -8,4 -8,9l0 47 -23 0 0 -47c0,-5 -3,-9 -8,-9l-65 0c-6,0 -8,4 -8,9l0 174c0,6 2,9 8,9l65 0c5,0 8,-3 8,-9l0 -48 23 0 0 48c0,6 3,9 8,9l66 0c5,0 8,-3 8,-9l0 -174zm120 -15c-18,0 -35,4 -51,14 -15,9 -27,21 -36,37 -9,16 -14,33 -14,52 -1,55 46,104 101,102 53,2 101,-47 100,-102 1,-56 -46,-105 -100,-103zm-1 124c-11,0 -21,-9 -21,-22 0,-12 10,-22 21,-22 12,0 21,10 21,22 0,13 -9,22 -21,22zm367 74c7,0 11,-4 10,-11l-24 -169c-1,-7 -5,-12 -11,-12l-81 0c-5,0 -9,4 -10,11l-7 63 -7 -63c0,-7 -5,-11 -10,-11l-80 0c-6,0 -10,5 -11,12l-25 169c-1,7 4,11 11,11l58 0c7,0 10,-4 11,-11l7 -63 5 64c1,7 4,10 10,10l62 0c7,0 10,-3 11,-10l5 -64 7 63c1,7 4,11 10,11l59 0zm191 -77c16,-2 24,-14 24,-32 0,-51 -39,-90 -94,-89 -55,-2 -101,47 -100,103 -1,55 46,104 101,102 23,0 46,-8 63,-22 2,-2 4,-4 4,-7 0,-2 -1,-4 -2,-6 -12,-17 -19,-28 -23,-34 -3,-3 -5,-5 -7,-5 -2,0 -4,1 -5,2 -8,5 -17,8 -28,8 -15,0 -27,-8 -29,-20l95 0 1 0zm-96 -34c3,-12 13,-21 24,-21 12,0 22,9 24,21l-48 0zm336 15c1,-60 -33,-104 -81,-103 -22,0 -40,10 -52,28l-10 -17c-2,-2 -4,-3 -7,-3l-39 0c-5,0 -8,3 -8,9l0 265c0,5 3,9 8,9l65 0c5,0 8,-4 8,-9l0 -87c10,7 22,11 35,11 48,1 82,-44 81,-103zm-76 0c0,12 -9,22 -21,22 -12,0 -21,-10 -21,-22 0,-12 9,-22 21,-22 12,0 21,10 21,22zm186 -102c-18,0 -35,4 -51,14 -15,9 -27,21 -36,37 -9,16 -14,33 -14,52 -1,55 47,104 101,102 53,2 101,-47 100,-102 1,-56 -46,-105 -100,-103zm0 124c-12,0 -21,-9 -21,-22 0,-12 9,-22 21,-22 11,0 20,10 20,22 0,13 -9,22 -20,22zm366 74c7,0 11,-4 11,-11l-25 -169c-1,-7 -5,-12 -11,-12l-80 0c-6,0 -10,4 -11,11l-6 63 -7 -63c-1,-7 -5,-11 -11,-11l-80 0c-6,0 -10,5 -11,12l-25 169c-1,7 4,11 11,11l58 0c7,0 10,-4 11,-11l7 -63 5 64c1,7 4,10 10,10l63 0c6,0 9,-3 10,-10l5 -64 7 63c1,7 4,11 11,11l58 0zm140 -192c-5,0 -11,6 -11,13l0 59c0,8 4,12 11,12l41 0 0 93c0,9 4,15 11,15l58 0c8,0 13,-6 13,-15l0 -93 42 0c5,0 10,-5 10,-13l0 -60c0,-7 -3,-11 -10,-11l-165 0zm351 115c16,-2 23,-14 23,-32 1,-51 -39,-90 -93,-89 -55,-2 -101,47 -100,103 -2,55 46,104 100,102 23,0 46,-8 63,-22 3,-2 4,-4 4,-7 0,-2 0,-4 -2,-6 -11,-17 -19,-28 -23,-34 -2,-3 -4,-5 -7,-5 -2,0 -3,1 -5,2 -7,5 -17,8 -28,8 -15,0 -26,-8 -29,-20l96 0 1 0zm-96 -34c3,-12 12,-21 24,-21 12,0 21,9 24,21l-48 0zm157 14c-1,10 -3,16 -7,16 -1,0 -3,0 -6,0 -3,-1 -4,-1 -5,-1 -7,0 -11,4 -11,10l0 60c0,6 4,10 11,12 2,1 6,1 13,2 6,1 12,1 17,1 16,0 30,-5 43,-15 13,-10 21,-28 24,-54l3 -40 19 0 0 94c0,8 4,12 11,12l61 0c6,0 10,-5 10,-12l0 -168c0,-7 -5,-12 -13,-12l-149 1c-10,0 -17,8 -17,21l-4 73zm373 20c16,-2 23,-14 23,-32 1,-51 -39,-90 -93,-89 -55,-2 -101,47 -100,103 -1,55 46,104 101,102 23,0 45,-8 63,-22 2,-2 3,-4 3,-7 0,-2 0,-4 -2,-6 -11,-17 -18,-28 -22,-34 -3,-3 -5,-5 -7,-5 -2,0 -4,1 -6,2 -7,5 -16,8 -28,8 -14,0 -26,-8 -28,-20l95 0 1 0zm-96 -34c3,-12 13,-21 24,-21 12,0 22,9 24,21l-48 0zm309 117c62,-6 99,-44 99,-102 0,-58 -37,-96 -99,-102l0 -38c0,-5 -3,-8 -8,-8l-65 0c-5,0 -8,3 -8,8l0 38c-63,7 -100,44 -100,102 0,58 37,96 100,102l0 38c0,5 3,8 8,8l65 0c5,0 8,-3 8,-8l0 -38zm18 -102c0,11 -7,19 -18,23l0 -47c11,5 18,13 18,24zm-99 23c-12,-4 -18,-12 -18,-23 0,-11 6,-19 18,-24l0 47zm290 -125c-18,0 -35,4 -50,14 -16,9 -28,21 -37,37 -9,16 -13,33 -13,52 -2,55 46,104 100,102 54,2 101,-47 100,-102 1,-56 -46,-105 -100,-103zm0 124c-12,0 -21,-9 -21,-22 0,-12 9,-22 21,-22 11,0 20,10 20,22 0,13 -9,22 -20,22zm306 -109c0,-5 -3,-9 -8,-9l-66 0c-5,0 -8,4 -8,9l0 47 -23 0 0 -47c0,-5 -3,-9 -8,-9l-66 0c-5,0 -8,4 -8,9l0 174c0,6 3,9 8,9l66 0c5,0 8,-3 8,-9l0 -48 23 0 0 48c0,6 3,9 8,9l66 0c5,0 8,-3 8,-9l0 -174zm218 -1c0,-5 -4,-8 -7,-8l-70 0c-5,0 -10,4 -11,9l-15 71 -14 -71c-1,-5 -6,-9 -11,-9l-70 0c-4,0 -7,3 -7,8 0,2 1,3 1,5l60 156 -38 99c-1,3 -2,5 -2,7 0,6 4,9 13,9l58 0c5,0 9,-3 11,-8l36 -92c0,0 0,0 0,0l65 -171c0,-2 1,-3 1,-5z"/>
  </g>
 </g>
</svg>
