<?xml version="1.0" encoding="UTF-8"?>
<!DOCTYPE svg PUBLIC "-//W3C//DTD SVG 1.1//EN" "http://www.w3.org/Graphics/SVG/1.1/DTD/svg11.dtd">
<!-- Creator: CorelDRAW X7 -->
<svg xmlns="http://www.w3.org/2000/svg" xml:space="preserve" width="53.8918mm" height="12.9469mm" version="1.1" style="shape-rendering:geometricPrecision; text-rendering:geometricPrecision; image-rendering:optimizeQuality; fill-rule:evenodd; clip-rule:evenodd"
viewBox="0 0 6585 1582"
 xmlns:xlink="http://www.w3.org/1999/xlink">
 <defs>
  <style type="text/css">
   <![CDATA[
    .str0 {stroke:#FEFEFE;stroke-width:61.091;stroke-linecap:round;stroke-linejoin:round}
    .fil0 {fill:none;fill-rule:nonzero}
    .fil1 {fill:#2B2A29;fill-rule:nonzero}
   ]]>
  </style>
 </defs>
 <g id="Слой_x0020_1">
  <metadata id="CorelCorpID_0Corel-Layer"/>
  <g>
   <path class="fil0 str0" d="M509 372c0,-6 -4,-13 -15,-13l-34 0 0 0 0 -299c0,-10 -6,-15 -15,-15l-294 0c-8,0 -14,6 -15,16l-10 117c-3,26 -8,55 -16,88 -8,33 -17,64 -29,93l-36 0c-10,0 -14,7 -14,13l0 172c0,11 7,15 13,15l90 0c9,0 15,-6 15,-15l0 -62 242 0 0 62c0,9 5,15 14,15l91 0c6,0 13,-4 13,-15l0 -172zm-176 -13l-114 0c9,-30 17,-62 23,-95 6,-33 9,-59 10,-77l1 -14 80 0 0 186zm415 -328c-41,0 -78,10 -111,31 -34,20 -61,47 -80,82 -20,35 -29,73 -29,115 0,42 9,80 29,115 19,35 46,62 79,82 34,20 71,31 112,31 40,0 77,-11 111,-31 33,-20 60,-47 79,-82 20,-35 30,-73 30,-115 0,-42 -10,-80 -30,-115 -19,-35 -46,-62 -79,-82 -34,-21 -71,-31 -111,-31zm0 324c-51,1 -94,-44 -94,-96 0,-53 43,-97 94,-96 51,-1 94,43 93,96 1,52 -42,97 -93,96zm533 -22c-5,0 -10,2 -15,5 -6,5 -14,9 -24,12 -10,4 -19,5 -26,5 -52,1 -96,-43 -95,-96 -1,-53 43,-98 95,-97 8,0 17,2 27,6 10,3 19,8 25,13 4,3 9,4 13,4 5,0 9,-2 12,-6l54 -84c1,-2 2,-5 2,-8 0,-5 -3,-11 -7,-14 -17,-12 -37,-22 -61,-30 -24,-8 -46,-12 -65,-12 -41,0 -78,10 -112,30 -34,20 -61,48 -81,83 -19,35 -29,73 -29,115 0,42 10,80 29,115 20,35 47,63 81,83 34,20 71,30 112,30 19,0 41,-4 65,-12 24,-7 43,-17 58,-28 6,-4 10,-10 10,-16 0,-2 -1,-5 -2,-6l-53 -85c-3,-5 -7,-7 -13,-7zm93 -187c0,12 7,19 18,19l79 0 0 298c0,11 6,18 18,18l91 0c11,0 18,-7 18,-18l0 -298 79 0c11,0 18,-7 18,-19l0 -87c0,-12 -7,-19 -18,-19l-285 0c-11,0 -18,7 -18,19l0 87zm705 319c0,-3 -1,-6 -2,-8l-149 -400c-4,-11 -13,-17 -22,-17l-75 0c-10,0 -19,6 -23,17l-150 400c-1,2 -1,4 -1,8 0,7 5,12 14,12l101 0c10,0 19,-8 22,-17l12 -41 123 0 13 41c3,10 12,17 22,17l101 0c9,0 14,-5 14,-12zm-240 -154l29 -97 29 97 -58 0zm605 30c0,-42 -20,-78 -53,-96 22,-16 35,-44 35,-74 0,-82 -56,-131 -149,-131l-154 0c-8,0 -13,5 -13,13l0 411c0,8 5,13 13,13l167 0c97,0 154,-51 154,-136zm-169 -183c15,0 24,9 24,23 0,16 -9,24 -24,24l-38 0 0 -47 38 0zm42 169c0,20 -12,31 -30,31l-50 0 0 -60 50 0c19,0 30,11 30,29zm582 139c0,-4 -1,-8 -4,-11l-129 -211 128 -181c3,-4 4,-8 4,-12 0,-7 -4,-11 -11,-11l-118 0c-12,0 -18,2 -26,12l-98 144 -31 0 0 -143c0,-8 -5,-13 -13,-13l-101 0c-8,0 -13,5 -13,13l0 411c0,8 5,13 13,13l101 0c8,0 13,-5 13,-13l0 -148 45 0 93 153c4,5 11,8 17,8l118 0c8,0 12,-5 12,-11zm434 -1c0,-3 0,-6 -1,-8l-150 -400c-3,-11 -13,-17 -22,-17l-75 0c-9,0 -19,6 -23,17l-150 400c0,2 -1,4 -1,8 0,7 5,12 14,12l101 0c11,0 20,-8 22,-17l13 -41 123 0 12 41c3,10 12,17 22,17l101 0c9,0 14,-5 14,-12zm-240 -154l29 -97 29 97 -58 0zm791 -258c0,-8 -5,-13 -13,-13l-339 0c-7,0 -12,5 -12,13l0 411c0,8 5,13 12,13l102 0c8,0 13,-5 13,-13l0 -299 110 0 0 299c0,8 5,13 12,13l102 0c8,0 13,-5 13,-13l0 -411zm263 -22c-41,0 -77,10 -111,31 -34,20 -61,47 -80,82 -19,35 -29,73 -29,115 0,42 10,80 29,115 19,35 46,62 80,82 33,20 70,31 111,31 40,0 77,-11 111,-31 34,-20 60,-47 79,-82 20,-35 30,-73 30,-115 0,-42 -10,-80 -30,-115 -19,-35 -45,-62 -79,-82 -34,-21 -71,-31 -111,-31zm0 324c-51,1 -94,-44 -93,-96 -1,-53 42,-97 93,-96 51,-1 94,43 93,96 1,52 -42,97 -93,96zm533 -22c-4,0 -9,2 -14,5 -7,5 -15,9 -25,12 -10,4 -18,5 -26,5 -52,1 -96,-43 -95,-96 -1,-53 43,-98 95,-97 8,0 17,2 27,6 10,3 19,8 25,13 4,3 9,4 13,4 6,0 10,-2 12,-6l54 -84c2,-2 2,-5 2,-8 0,-5 -2,-11 -7,-14 -16,-12 -37,-22 -61,-30 -24,-8 -46,-12 -65,-12 -41,0 -78,10 -112,30 -34,20 -61,48 -81,83 -19,35 -29,73 -29,115 0,42 10,80 29,115 20,35 47,63 81,83 34,20 71,30 112,30 20,0 41,-4 65,-12 24,-7 43,-17 58,-28 6,-4 10,-10 10,-16 0,-2 0,-5 -2,-6l-53 -85c-3,-5 -7,-7 -13,-7zm498 -280c0,-8 -5,-13 -12,-13l-106 0c-9,0 -18,5 -25,16l-118 193 0 -196c0,-8 -5,-13 -13,-13l-102 0c-8,0 -12,5 -12,13l0 411c0,8 5,13 12,13l97 0c11,0 20,-6 26,-16l126 -210 0 213c0,8 5,13 13,13l102 0c7,0 12,-5 12,-13l0 -411zm95 46c0,41 -2,84 -5,129 -4,44 -8,81 -13,110 -3,13 -6,21 -12,21 -3,0 -6,0 -10,0 -3,-1 -5,-1 -7,-1 -9,0 -14,5 -14,15l0 89c0,8 7,15 18,18 5,1 16,2 33,2 59,0 103,-43 115,-114 6,-35 11,-70 14,-106 4,-36 5,-67 5,-94l93 0 0 290c0,12 6,19 16,19l95 0c9,0 16,-8 16,-19l0 -400c0,-11 -8,-18 -20,-18l-298 0c-16,0 -27,11 -27,30l1 29zm607 -68c-41,0 -78,10 -111,31 -34,20 -61,47 -80,82 -20,35 -29,73 -29,115 0,42 9,80 29,115 19,35 46,62 79,82 34,20 71,31 112,31 40,0 77,-11 111,-31 33,-20 60,-47 79,-82 20,-35 30,-73 30,-115 0,-42 -10,-80 -30,-115 -19,-35 -46,-62 -79,-82 -34,-21 -71,-31 -111,-31zm0 324c-51,1 -94,-44 -93,-96 -1,-53 42,-97 93,-96 51,-1 94,43 93,96 1,52 -42,97 -93,96zm674 111c0,-4 -1,-8 -3,-11l-130 -211 128 -181c3,-4 4,-8 4,-12 0,-7 -3,-11 -11,-11l-117 0c-13,0 -19,2 -26,12l-99 144 -31 0 0 -143c0,-8 -4,-13 -12,-13l-102 0c-8,0 -13,5 -13,13l0 411c0,8 5,13 13,13l102 0c8,0 12,-5 12,-13l0 -148 46 0 93 153c3,5 10,8 17,8l118 0c7,0 11,-5 11,-11zm-6122 673l113 -133c3,-3 5,-7 5,-13 0,-5 -2,-9 -6,-11l-76 -61c-3,-3 -7,-4 -10,-4 -4,0 -7,1 -10,5l-177 206c-4,4 -6,9 -6,11 0,3 2,8 6,12l177 206c3,3 6,5 11,5 3,0 6,-2 9,-4l76 -61c4,-3 6,-7 6,-12 0,-5 -2,-10 -5,-13l-113 -133zm226 0l113 -133c4,-3 5,-7 5,-13 0,-5 -2,-9 -5,-11l-76 -61c-3,-3 -7,-4 -10,-4 -4,0 -7,1 -10,5l-177 206c-4,4 -6,9 -6,11 0,3 2,8 6,12l177 206c3,3 6,5 10,5 3,0 7,-2 10,-4l76 -61c3,-3 5,-7 5,-12 0,-5 -1,-10 -5,-13l-113 -133zm552 85c0,-47 -22,-79 -60,-89 37,-9 58,-38 58,-79 0,-88 -72,-140 -187,-140l-5 0c-59,0 -116,17 -151,45 -11,8 -16,17 -16,27 0,5 1,9 4,13l49 73c6,9 13,13 22,13 6,0 11,-1 15,-4 15,-8 41,-13 69,-13l8 0c7,0 12,3 12,8 0,4 -4,7 -11,7l-33 0c-17,0 -28,10 -28,25l0 60c0,17 9,28 26,28l35 0c6,0 11,3 11,8 0,4 -5,6 -11,6l-7 0c-33,0 -67,-8 -91,-24 -5,-2 -10,-4 -15,-4 -9,0 -18,6 -25,17l-51 82c-3,5 -5,10 -5,15 0,9 5,17 16,24 46,27 114,44 177,44l4 0c118,0 190,-54 190,-142zm728 -84c1,-129 -74,-226 -180,-224 -49,0 -89,21 -116,61l-23 -36c-3,-5 -8,-8 -14,-8l-86 0c-12,0 -19,8 -19,20l0 578c0,12 7,20 19,20l144 0c11,0 18,-8 18,-20l-2 -189c23,16 49,24 79,24 106,2 181,-96 180,-226zm-170 1c0,26 -20,47 -46,47 -26,0 -46,-21 -46,-47 0,-27 20,-49 46,-49 26,0 46,22 46,49zm616 -193c0,-10 -7,-17 -15,-17l-154 0c-12,0 -23,8 -25,19l-32 155 -33 -155c-2,-11 -13,-19 -25,-19l-154 0c-8,0 -15,7 -15,17 0,4 1,7 2,11l132 342 -83 215c-3,6 -4,12 -4,16 0,13 9,19 27,19l130 0c11,0 19,-6 23,-17l80 -202c0,0 0,0 0,0l144 -373c1,-4 2,-7 2,-11zm512 390c0,-5 -2,-10 -7,-17l-122 -177 113 -184c3,-7 5,-11 5,-15 0,-8 -7,-13 -19,-13l-160 -1c-16,0 -30,11 -40,28l-50 92 -20 0 0 -101c0,-11 -7,-19 -18,-19l-146 0c-11,0 -17,8 -17,19l0 381c0,13 6,19 17,19l146 0c11,0 18,-6 18,-19l0 -113 19 0 65 113c6,12 16,19 25,19l172 0c13,0 19,-4 19,-12zm633 -211c20,-9 32,-36 32,-69 0,-79 -53,-127 -141,-127l-213 0c-18,0 -29,13 -29,33l0 357c0,18 11,29 29,29l207 0c100,0 161,-50 161,-133 0,-38 -18,-72 -46,-90zm-173 -63l27 0c8,0 13,5 13,13 0,8 -5,13 -14,13l-26 0 0 -26zm0 129l31 0c8,0 13,5 13,13 0,7 -5,12 -13,12l-31 0 0 -25zm950 -53c2,-129 -74,-226 -179,-224 -50,0 -89,21 -117,61l-23 -36c-3,-5 -8,-8 -13,-8l-87 0c-11,0 -19,8 -19,20l0 578c0,12 8,20 19,20l144 0c11,0 18,-8 18,-20l-1 -189c22,16 48,24 79,24 105,2 181,-96 179,-226zm-170 1c0,26 -20,47 -46,47 -25,0 -46,-21 -46,-47 0,-27 21,-49 46,-49 26,0 46,22 46,49zm617 -193c0,-10 -8,-17 -16,-17l-154 0c-11,0 -23,8 -25,19l-32 155 -32 -155c-3,-11 -14,-19 -26,-19l-154 0c-8,0 -15,7 -15,17 0,4 1,7 2,11l132 342 -83 215c-3,6 -4,12 -4,16 0,13 9,19 27,19l130 0c11,0 20,-6 24,-17l79 -202c0,0 1,0 1,0l143 -373c2,-4 3,-7 3,-11zm511 390c0,-5 -2,-10 -6,-17l-123 -177 113 -184c3,-7 5,-11 5,-15 0,-8 -7,-13 -18,-13l-160 -1c-16,0 -31,11 -40,28l-50 92 -21 0 0 -101c0,-11 -7,-19 -18,-19l-145 0c-12,0 -18,8 -18,19l0 381c0,13 6,19 18,19l145 0c11,0 18,-6 18,-19l0 -113 19 0 65 113c6,12 16,19 25,19l173 0c12,0 18,-4 18,-12zm467 -388c0,-11 -7,-19 -18,-19l-145 0 -1 0 -2 0c-7,1 -12,5 -14,11l-3 7 -68 121 0 -120c0,-11 -7,-19 -18,-19l-145 0c-11,0 -18,8 -18,19l0 381c0,13 7,19 18,19l145 0c5,0 10,-1 14,-5 5,-3 9,-11 12,-17l62 -108 0 111c0,13 6,19 18,19l145 0c11,0 18,-6 18,-19l0 -381zm359 189c0,-2 -2,-7 -6,-11l-177 -206c-3,-4 -6,-5 -10,-5 -3,0 -7,1 -10,4l-76 61c-3,2 -5,6 -5,11 0,6 1,10 5,13l113 133 -113 133c-4,3 -5,8 -5,13 0,5 2,9 5,12l76 61c3,2 7,4 10,4 4,0 7,-2 10,-5l177 -206c4,-4 6,-9 6,-12zm227 0c0,-2 -2,-7 -6,-11l-177 -206c-3,-4 -6,-5 -10,-5 -3,0 -7,1 -10,4l-76 61c-4,2 -6,6 -6,11 0,6 2,10 5,13l113 133 -113 133c-3,3 -5,8 -5,13 0,5 2,9 6,12l76 61c3,2 6,4 9,4 5,0 8,-2 11,-5l177 -206c4,-4 6,-9 6,-12z"/>
   <path id="1" class="fil1" d="M509 372c0,-6 -4,-13 -15,-13l-34 0 0 0 0 -299c0,-10 -6,-15 -15,-15l-294 0c-8,0 -14,6 -15,16l-10 117c-3,26 -8,55 -16,88 -8,33 -17,64 -29,93l-36 0c-10,0 -14,7 -14,13l0 172c0,11 7,15 13,15l90 0c9,0 15,-6 15,-15l0 -62 242 0 0 62c0,9 5,15 14,15l91 0c6,0 13,-4 13,-15l0 -172zm-176 -13l-114 0c9,-30 17,-62 23,-95 6,-33 9,-59 10,-77l1 -14 80 0 0 186zm415 -328c-41,0 -78,10 -111,31 -34,20 -61,47 -80,82 -20,35 -29,73 -29,115 0,42 9,80 29,115 19,35 46,62 79,82 34,20 71,31 112,31 40,0 77,-11 111,-31 33,-20 60,-47 79,-82 20,-35 30,-73 30,-115 0,-42 -10,-80 -30,-115 -19,-35 -46,-62 -79,-82 -34,-21 -71,-31 -111,-31zm0 324c-51,1 -94,-44 -94,-96 0,-53 43,-97 94,-96 51,-1 94,43 93,96 1,52 -42,97 -93,96zm533 -22c-5,0 -10,2 -15,5 -6,5 -14,9 -24,12 -10,4 -19,5 -26,5 -52,1 -96,-43 -95,-96 -1,-53 43,-98 95,-97 8,0 17,2 27,6 10,3 19,8 25,13 4,3 9,4 13,4 5,0 9,-2 12,-6l54 -84c1,-2 2,-5 2,-8 0,-5 -3,-11 -7,-14 -17,-12 -37,-22 -61,-30 -24,-8 -46,-12 -65,-12 -41,0 -78,10 -112,30 -34,20 -61,48 -81,83 -19,35 -29,73 -29,115 0,42 10,80 29,115 20,35 47,63 81,83 34,20 71,30 112,30 19,0 41,-4 65,-12 24,-7 43,-17 58,-28 6,-4 10,-10 10,-16 0,-2 -1,-5 -2,-6l-53 -85c-3,-5 -7,-7 -13,-7zm93 -187c0,12 7,19 18,19l79 0 0 298c0,11 6,18 18,18l91 0c11,0 18,-7 18,-18l0 -298 79 0c11,0 18,-7 18,-19l0 -87c0,-12 -7,-19 -18,-19l-285 0c-11,0 -18,7 -18,19l0 87zm705 319c0,-3 -1,-6 -2,-8l-149 -400c-4,-11 -13,-17 -22,-17l-75 0c-10,0 -19,6 -23,17l-150 400c-1,2 -1,4 -1,8 0,7 5,12 14,12l101 0c10,0 19,-8 22,-17l12 -41 123 0 13 41c3,10 12,17 22,17l101 0c9,0 14,-5 14,-12zm-240 -154l29 -97 29 97 -58 0zm605 30c0,-42 -20,-78 -53,-96 22,-16 35,-44 35,-74 0,-82 -56,-131 -149,-131l-154 0c-8,0 -13,5 -13,13l0 411c0,8 5,13 13,13l167 0c97,0 154,-51 154,-136zm-169 -183c15,0 24,9 24,23 0,16 -9,24 -24,24l-38 0 0 -47 38 0zm42 169c0,20 -12,31 -30,31l-50 0 0 -60 50 0c19,0 30,11 30,29zm582 139c0,-4 -1,-8 -4,-11l-129 -211 128 -181c3,-4 4,-8 4,-12 0,-7 -4,-11 -11,-11l-118 0c-12,0 -18,2 -26,12l-98 144 -31 0 0 -143c0,-8 -5,-13 -13,-13l-101 0c-8,0 -13,5 -13,13l0 411c0,8 5,13 13,13l101 0c8,0 13,-5 13,-13l0 -148 45 0 93 153c4,5 11,8 17,8l118 0c8,0 12,-5 12,-11zm434 -1c0,-3 0,-6 -1,-8l-150 -400c-3,-11 -13,-17 -22,-17l-75 0c-9,0 -19,6 -23,17l-150 400c0,2 -1,4 -1,8 0,7 5,12 14,12l101 0c11,0 20,-8 22,-17l13 -41 123 0 12 41c3,10 12,17 22,17l101 0c9,0 14,-5 14,-12zm-240 -154l29 -97 29 97 -58 0zm791 -258c0,-8 -5,-13 -13,-13l-339 0c-7,0 -12,5 -12,13l0 411c0,8 5,13 12,13l102 0c8,0 13,-5 13,-13l0 -299 110 0 0 299c0,8 5,13 12,13l102 0c8,0 13,-5 13,-13l0 -411zm263 -22c-41,0 -77,10 -111,31 -34,20 -61,47 -80,82 -19,35 -29,73 -29,115 0,42 10,80 29,115 19,35 46,62 80,82 33,20 70,31 111,31 40,0 77,-11 111,-31 34,-20 60,-47 79,-82 20,-35 30,-73 30,-115 0,-42 -10,-80 -30,-115 -19,-35 -45,-62 -79,-82 -34,-21 -71,-31 -111,-31zm0 324c-51,1 -94,-44 -93,-96 -1,-53 42,-97 93,-96 51,-1 94,43 93,96 1,52 -42,97 -93,96zm533 -22c-4,0 -9,2 -14,5 -7,5 -15,9 -25,12 -10,4 -18,5 -26,5 -52,1 -96,-43 -95,-96 -1,-53 43,-98 95,-97 8,0 17,2 27,6 10,3 19,8 25,13 4,3 9,4 13,4 6,0 10,-2 12,-6l54 -84c2,-2 2,-5 2,-8 0,-5 -2,-11 -7,-14 -16,-12 -37,-22 -61,-30 -24,-8 -46,-12 -65,-12 -41,0 -78,10 -112,30 -34,20 -61,48 -81,83 -19,35 -29,73 -29,115 0,42 10,80 29,115 20,35 47,63 81,83 34,20 71,30 112,30 20,0 41,-4 65,-12 24,-7 43,-17 58,-28 6,-4 10,-10 10,-16 0,-2 0,-5 -2,-6l-53 -85c-3,-5 -7,-7 -13,-7zm498 -280c0,-8 -5,-13 -12,-13l-106 0c-9,0 -18,5 -25,16l-118 193 0 -196c0,-8 -5,-13 -13,-13l-102 0c-8,0 -12,5 -12,13l0 411c0,8 5,13 12,13l97 0c11,0 20,-6 26,-16l126 -210 0 213c0,8 5,13 13,13l102 0c7,0 12,-5 12,-13l0 -411zm95 46c0,41 -2,84 -5,129 -4,44 -8,81 -13,110 -3,13 -6,21 -12,21 -3,0 -6,0 -10,0 -3,-1 -5,-1 -7,-1 -9,0 -14,5 -14,15l0 89c0,8 7,15 18,18 5,1 16,2 33,2 59,0 103,-43 115,-114 6,-35 11,-70 14,-106 4,-36 5,-67 5,-94l93 0 0 290c0,12 6,19 16,19l95 0c9,0 16,-8 16,-19l0 -400c0,-11 -8,-18 -20,-18l-298 0c-16,0 -27,11 -27,30l1 29zm607 -68c-41,0 -78,10 -111,31 -34,20 -61,47 -80,82 -20,35 -29,73 -29,115 0,42 9,80 29,115 19,35 46,62 79,82 34,20 71,31 112,31 40,0 77,-11 111,-31 33,-20 60,-47 79,-82 20,-35 30,-73 30,-115 0,-42 -10,-80 -30,-115 -19,-35 -46,-62 -79,-82 -34,-21 -71,-31 -111,-31zm0 324c-51,1 -94,-44 -93,-96 -1,-53 42,-97 93,-96 51,-1 94,43 93,96 1,52 -42,97 -93,96zm674 111c0,-4 -1,-8 -3,-11l-130 -211 128 -181c3,-4 4,-8 4,-12 0,-7 -3,-11 -11,-11l-117 0c-13,0 -19,2 -26,12l-99 144 -31 0 0 -143c0,-8 -4,-13 -12,-13l-102 0c-8,0 -13,5 -13,13l0 411c0,8 5,13 13,13l102 0c8,0 12,-5 12,-13l0 -148 46 0 93 153c3,5 10,8 17,8l118 0c7,0 11,-5 11,-11zm-6122 673l113 -133c3,-3 5,-7 5,-13 0,-5 -2,-9 -6,-11l-76 -61c-3,-3 -7,-4 -10,-4 -4,0 -7,1 -10,5l-177 206c-4,4 -6,9 -6,11 0,3 2,8 6,12l177 206c3,3 6,5 11,5 3,0 6,-2 9,-4l76 -61c4,-3 6,-7 6,-12 0,-5 -2,-10 -5,-13l-113 -133zm226 0l113 -133c4,-3 5,-7 5,-13 0,-5 -2,-9 -5,-11l-76 -61c-3,-3 -7,-4 -10,-4 -4,0 -7,1 -10,5l-177 206c-4,4 -6,9 -6,11 0,3 2,8 6,12l177 206c3,3 6,5 10,5 3,0 7,-2 10,-4l76 -61c3,-3 5,-7 5,-12 0,-5 -1,-10 -5,-13l-113 -133zm552 85c0,-47 -22,-79 -60,-89 37,-9 58,-38 58,-79 0,-88 -72,-140 -187,-140l-5 0c-59,0 -116,17 -151,45 -11,8 -16,17 -16,27 0,5 1,9 4,13l49 73c6,9 13,13 22,13 6,0 11,-1 15,-4 15,-8 41,-13 69,-13l8 0c7,0 12,3 12,8 0,4 -4,7 -11,7l-33 0c-17,0 -28,10 -28,25l0 60c0,17 9,28 26,28l35 0c6,0 11,3 11,8 0,4 -5,6 -11,6l-7 0c-33,0 -67,-8 -91,-24 -5,-2 -10,-4 -15,-4 -9,0 -18,6 -25,17l-51 82c-3,5 -5,10 -5,15 0,9 5,17 16,24 46,27 114,44 177,44l4 0c118,0 190,-54 190,-142zm728 -84c1,-129 -74,-226 -180,-224 -49,0 -89,21 -116,61l-23 -36c-3,-5 -8,-8 -14,-8l-86 0c-12,0 -19,8 -19,20l0 578c0,12 7,20 19,20l144 0c11,0 18,-8 18,-20l-2 -189c23,16 49,24 79,24 106,2 181,-96 180,-226zm-170 1c0,26 -20,47 -46,47 -26,0 -46,-21 -46,-47 0,-27 20,-49 46,-49 26,0 46,22 46,49zm616 -193c0,-10 -7,-17 -15,-17l-154 0c-12,0 -23,8 -25,19l-32 155 -33 -155c-2,-11 -13,-19 -25,-19l-154 0c-8,0 -15,7 -15,17 0,4 1,7 2,11l132 342 -83 215c-3,6 -4,12 -4,16 0,13 9,19 27,19l130 0c11,0 19,-6 23,-17l80 -202c0,0 0,0 0,0l144 -373c1,-4 2,-7 2,-11zm512 390c0,-5 -2,-10 -7,-17l-122 -177 113 -184c3,-7 5,-11 5,-15 0,-8 -7,-13 -19,-13l-160 -1c-16,0 -30,11 -40,28l-50 92 -20 0 0 -101c0,-11 -7,-19 -18,-19l-146 0c-11,0 -17,8 -17,19l0 381c0,13 6,19 17,19l146 0c11,0 18,-6 18,-19l0 -113 19 0 65 113c6,12 16,19 25,19l172 0c13,0 19,-4 19,-12zm633 -211c20,-9 32,-36 32,-69 0,-79 -53,-127 -141,-127l-213 0c-18,0 -29,13 -29,33l0 357c0,18 11,29 29,29l207 0c100,0 161,-50 161,-133 0,-38 -18,-72 -46,-90zm-173 -63l27 0c8,0 13,5 13,13 0,8 -5,13 -14,13l-26 0 0 -26zm0 129l31 0c8,0 13,5 13,13 0,7 -5,12 -13,12l-31 0 0 -25zm950 -53c2,-129 -74,-226 -179,-224 -50,0 -89,21 -117,61l-23 -36c-3,-5 -8,-8 -13,-8l-87 0c-11,0 -19,8 -19,20l0 578c0,12 8,20 19,20l144 0c11,0 18,-8 18,-20l-1 -189c22,16 48,24 79,24 105,2 181,-96 179,-226zm-170 1c0,26 -20,47 -46,47 -25,0 -46,-21 -46,-47 0,-27 21,-49 46,-49 26,0 46,22 46,49zm617 -193c0,-10 -8,-17 -16,-17l-154 0c-11,0 -23,8 -25,19l-32 155 -32 -155c-3,-11 -14,-19 -26,-19l-154 0c-8,0 -15,7 -15,17 0,4 1,7 2,11l132 342 -83 215c-3,6 -4,12 -4,16 0,13 9,19 27,19l130 0c11,0 20,-6 24,-17l79 -202c0,0 1,0 1,0l143 -373c2,-4 3,-7 3,-11zm511 390c0,-5 -2,-10 -6,-17l-123 -177 113 -184c3,-7 5,-11 5,-15 0,-8 -7,-13 -18,-13l-160 -1c-16,0 -31,11 -40,28l-50 92 -21 0 0 -101c0,-11 -7,-19 -18,-19l-145 0c-12,0 -18,8 -18,19l0 381c0,13 6,19 18,19l145 0c11,0 18,-6 18,-19l0 -113 19 0 65 113c6,12 16,19 25,19l173 0c12,0 18,-4 18,-12zm467 -388c0,-11 -7,-19 -18,-19l-145 0 -1 0 -2 0c-7,1 -12,5 -14,11l-3 7 -68 121 0 -120c0,-11 -7,-19 -18,-19l-145 0c-11,0 -18,8 -18,19l0 381c0,13 7,19 18,19l145 0c5,0 10,-1 14,-5 5,-3 9,-11 12,-17l62 -108 0 111c0,13 6,19 18,19l145 0c11,0 18,-6 18,-19l0 -381zm359 189c0,-2 -2,-7 -6,-11l-177 -206c-3,-4 -6,-5 -10,-5 -3,0 -7,1 -10,4l-76 61c-3,2 -5,6 -5,11 0,6 1,10 5,13l113 133 -113 133c-4,3 -5,8 -5,13 0,5 2,9 5,12l76 61c3,2 7,4 10,4 4,0 7,-2 10,-5l177 -206c4,-4 6,-9 6,-12zm227 0c0,-2 -2,-7 -6,-11l-177 -206c-3,-4 -6,-5 -10,-5 -3,0 -7,1 -10,4l-76 61c-4,2 -6,6 -6,11 0,6 2,10 5,13l113 133 -113 133c-3,3 -5,8 -5,13 0,5 2,9 6,12l76 61c3,2 6,4 9,4 5,0 8,-2 11,-5l177 -206c4,-4 6,-9 6,-12z"/>
  </g>
 </g>
</svg>
