<?xml version="1.0" encoding="UTF-8"?>
<!DOCTYPE svg PUBLIC "-//W3C//DTD SVG 1.1//EN" "http://www.w3.org/Graphics/SVG/1.1/DTD/svg11.dtd">
<!-- Creator: CorelDRAW X7 -->
<svg xmlns="http://www.w3.org/2000/svg" xml:space="preserve" width="60.6712mm" height="7.7628mm" version="1.1" style="shape-rendering:geometricPrecision; text-rendering:geometricPrecision; image-rendering:optimizeQuality; fill-rule:evenodd; clip-rule:evenodd"
viewBox="0 0 51744 6621"
 xmlns:xlink="http://www.w3.org/1999/xlink">
 <defs>
  <style type="text/css">
   <![CDATA[
    .str0 {stroke:#393185;stroke-width:852.866;stroke-linecap:round;stroke-linejoin:round}
    .fil0 {fill:none;fill-rule:nonzero}
    .fil1 {fill:#FFED00;fill-rule:nonzero}
   ]]>
  </style>
 </defs>
 <g id="Слой_x0020_1">
  <metadata id="CorelCorpID_0Corel-Layer"/>
  <g>
   <path class="fil0 str0" d="M3796 1541c0,-67 -50,-106 -138,-106l-969 0c-99,0 -188,67 -209,158l-369 1503 -365 -1506c-22,-91 -111,-155 -213,-155l-969 0c-88,0 -138,36 -138,106 0,19 6,46 16,76l1094 2700 -25 66c-14,41 -119,74 -194,74 -96,0 -163,75 -163,185l0 741c0,97 91,166 216,166 489,0 777,-110 965,-331 95,-114 181,-266 258,-457l199 -489 -8 -3 996 -2651c11,-28 16,-53 16,-77zm4221 3834c0,-36 -10,-71 -33,-104l-1239 -1944 1223 -1676c30,-36 43,-74 43,-116 0,-58 -36,-94 -110,-94l-1123 0c-119,0 -181,11 -250,110l-949 1330 -293 0 0 -1324c0,-77 -44,-122 -121,-122l-974 0c-77,0 -122,45 -122,122l0 3797c0,77 45,121 122,121l974 0c77,0 121,-44 121,-121l0 -1369 435 0 891 1421c35,44 100,69 163,69l1134 0c69,0 108,-41 108,-100zm3357 -2506c12,-869 -613,-1444 -1483,-1434l-523 0 -434 0 -443 0c-100,0 -169,72 -169,175l0 3696c0,108 60,169 169,169l872 0c110,0 179,-67 179,-169l0 -1012 349 0c870,8 1495,-565 1483,-1425zm-1217 -6c0,102 -33,188 -103,257 -69,70 -152,103 -248,103l-264 0 0 -720 264 0c96,0 179,36 248,105 70,70 103,153 103,255zm4923 2502c0,-26 -5,-50 -17,-75l-1430 -3697c-36,-96 -125,-158 -216,-158l-719 0c-89,0 -180,59 -221,158l-1434 3696c-9,20 -14,45 -14,73 0,69 47,113 136,113l968 0c103,0 189,-69 213,-154l119 -379 1179 0 119 379c30,90 113,154 211,154l968 0c88,0 138,-44 138,-110zm-2305 -1426l277 -893 279 893 -556 0zm3819 -2382c0,-77 -44,-122 -121,-122l-974 0c-78,0 -122,45 -122,122l0 3797c0,77 44,121 122,121l974 0c77,0 121,-44 121,-121l0 -3797zm-1413 -779c0,193 157,357 354,357 196,0 354,-164 354,-357 0,-191 -158,-352 -354,-352 -197,0 -354,161 -354,352zm957 0c0,193 158,357 354,357 197,0 355,-164 355,-357 0,-191 -158,-352 -355,-352 -196,0 -354,161 -354,352zm4599 779c0,-77 -47,-122 -122,-122l-977 0c-74,0 -121,47 -121,122l0 1369 -1137 0 0 -1369c0,-75 -46,-122 -121,-122l-976 0c-75,0 -122,45 -122,122l0 3797c0,77 47,121 122,121l976 0c75,0 121,-47 121,-121l0 -1365 1137 0 0 1365c0,74 47,121 121,121l977 0c75,0 122,-44 122,-121l0 -3797zm4346 3808c0,-26 -6,-50 -17,-75l-1431 -3697c-36,-96 -124,-158 -215,-158l-720 0c-89,0 -179,59 -221,158l-1433 3696c-9,20 -15,45 -15,73 0,69 48,113 136,113l968 0c103,0 189,-69 214,-154l119 -379 1179 0 119 379c30,90 113,154 210,154l968 0c89,0 139,-44 139,-110zm-2305 -1426l276 -893 280 893 -556 0zm7534 545c67,0 105,-42 105,-108l0 -209c0,-69 -38,-108 -105,-108l-3702 0c-67,0 -108,39 -108,108l0 209c0,66 41,108 108,108l3702 0zm1640 -2065c0,111 64,175 172,175l752 0 0 2752c0,108 63,169 171,169l873 0c111,0 171,-61 171,-169l0 -2752 763 0c102,0 169,-67 169,-175l0 -809c0,-108 -67,-175 -169,-175l-2730 0c-108,0 -172,64 -172,175l0 809zm6557 -878c0,-67 -50,-106 -138,-106l-968 0c-100,0 -188,67 -210,158l-369 1503 -365 -1506c-22,-91 -111,-155 -213,-155l-968 0c-88,0 -138,36 -138,106 0,19 5,46 16,76l1093 2700 -25 66c-13,41 -119,74 -194,74 -96,0 -163,75 -163,185l0 741c0,97 91,166 216,166 489,0 777,-110 965,-331 95,-114 181,-266 258,-457l199 -489 -8 -3 996 -2651c11,-28 16,-53 16,-77zm3326 1328c11,-869 -614,-1444 -1484,-1434l-522 0 -435 0 -443 0c-100,0 -169,72 -169,175l0 3696c0,108 61,169 169,169l872 0c111,0 180,-67 180,-169l0 -1012 348 0c870,8 1495,-565 1484,-1425zm-1218 -6c0,102 -33,188 -103,257 -69,70 -152,103 -248,103l-263 0 0 -720 263 0c96,0 179,36 248,105 70,70 103,153 103,255zm5503 1602c0,-55 -39,-125 -142,-125l-290 0 0 -2783c0,-77 -44,-122 -122,-122l-973 0c-74,0 -121,45 -121,122l0 2756 -1054 0 0 -2756c0,-77 -47,-122 -121,-122l-977 0c-74,0 -122,45 -122,122l0 3797c0,77 48,121 122,121l2665 0 0 578c0,81 53,141 139,141l871 0c55,0 125,-39 125,-141l0 -1588zm1547 -2908c0,-77 -45,-122 -122,-122l-975 0c-77,0 -122,45 -122,122l0 3797c0,77 45,121 122,121l975 0c77,0 122,-44 122,-121l0 -3797zm3651 50c0,-100 -69,-172 -169,-172l-227 0 -1262 0c-868,-10 -1499,565 -1488,1433 0,475 215,882 584,1133l-700 1281c-11,22 -17,44 -17,69 0,69 53,124 127,124l994 0c96,0 132,-25 196,-144l551 -1067 191 0 0 1042c0,102 69,169 179,169l872 0c109,0 169,-61 169,-169l0 -3699zm-1929 1255c0,-212 147,-360 355,-360l354 0 0 775 -354 0c-203,0 -355,-199 -355,-415z"/>
   <path id="1" class="fil1" d="M3796 1541c0,-67 -50,-106 -138,-106l-969 0c-99,0 -188,67 -209,158l-369 1503 -365 -1506c-22,-91 -111,-155 -213,-155l-969 0c-88,0 -138,36 -138,106 0,19 6,46 16,76l1094 2700 -25 66c-14,41 -119,74 -194,74 -96,0 -163,75 -163,185l0 741c0,97 91,166 216,166 489,0 777,-110 965,-331 95,-114 181,-266 258,-457l199 -489 -8 -3 996 -2651c11,-28 16,-53 16,-77zm4221 3834c0,-36 -10,-71 -33,-104l-1239 -1944 1223 -1676c30,-36 43,-74 43,-116 0,-58 -36,-94 -110,-94l-1123 0c-119,0 -181,11 -250,110l-949 1330 -293 0 0 -1324c0,-77 -44,-122 -121,-122l-974 0c-77,0 -122,45 -122,122l0 3797c0,77 45,121 122,121l974 0c77,0 121,-44 121,-121l0 -1369 435 0 891 1421c35,44 100,69 163,69l1134 0c69,0 108,-41 108,-100zm3357 -2506c12,-869 -613,-1444 -1483,-1434l-523 0 -434 0 -443 0c-100,0 -169,72 -169,175l0 3696c0,108 60,169 169,169l872 0c110,0 179,-67 179,-169l0 -1012 349 0c870,8 1495,-565 1483,-1425zm-1217 -6c0,102 -33,188 -103,257 -69,70 -152,103 -248,103l-264 0 0 -720 264 0c96,0 179,36 248,105 70,70 103,153 103,255zm4923 2502c0,-26 -5,-50 -17,-75l-1430 -3697c-36,-96 -125,-158 -216,-158l-719 0c-89,0 -180,59 -221,158l-1434 3696c-9,20 -14,45 -14,73 0,69 47,113 136,113l968 0c103,0 189,-69 213,-154l119 -379 1179 0 119 379c30,90 113,154 211,154l968 0c88,0 138,-44 138,-110zm-2305 -1426l277 -893 279 893 -556 0zm3819 -2382c0,-77 -44,-122 -121,-122l-974 0c-78,0 -122,45 -122,122l0 3797c0,77 44,121 122,121l974 0c77,0 121,-44 121,-121l0 -3797zm-1413 -779c0,193 157,357 354,357 196,0 354,-164 354,-357 0,-191 -158,-352 -354,-352 -197,0 -354,161 -354,352zm957 0c0,193 158,357 354,357 197,0 355,-164 355,-357 0,-191 -158,-352 -355,-352 -196,0 -354,161 -354,352zm4599 779c0,-77 -47,-122 -122,-122l-977 0c-74,0 -121,47 -121,122l0 1369 -1137 0 0 -1369c0,-75 -46,-122 -121,-122l-976 0c-75,0 -122,45 -122,122l0 3797c0,77 47,121 122,121l976 0c75,0 121,-47 121,-121l0 -1365 1137 0 0 1365c0,74 47,121 121,121l977 0c75,0 122,-44 122,-121l0 -3797zm4346 3808c0,-26 -6,-50 -17,-75l-1431 -3697c-36,-96 -124,-158 -215,-158l-720 0c-89,0 -179,59 -221,158l-1433 3696c-9,20 -15,45 -15,73 0,69 48,113 136,113l968 0c103,0 189,-69 214,-154l119 -379 1179 0 119 379c30,90 113,154 210,154l968 0c89,0 139,-44 139,-110zm-2305 -1426l276 -893 280 893 -556 0zm7534 545c67,0 105,-42 105,-108l0 -209c0,-69 -38,-108 -105,-108l-3702 0c-67,0 -108,39 -108,108l0 209c0,66 41,108 108,108l3702 0zm1640 -2065c0,111 64,175 172,175l752 0 0 2752c0,108 63,169 171,169l873 0c111,0 171,-61 171,-169l0 -2752 763 0c102,0 169,-67 169,-175l0 -809c0,-108 -67,-175 -169,-175l-2730 0c-108,0 -172,64 -172,175l0 809zm6557 -878c0,-67 -50,-106 -138,-106l-968 0c-100,0 -188,67 -210,158l-369 1503 -365 -1506c-22,-91 -111,-155 -213,-155l-968 0c-88,0 -138,36 -138,106 0,19 5,46 16,76l1093 2700 -25 66c-13,41 -119,74 -194,74 -96,0 -163,75 -163,185l0 741c0,97 91,166 216,166 489,0 777,-110 965,-331 95,-114 181,-266 258,-457l199 -489 -8 -3 996 -2651c11,-28 16,-53 16,-77zm3326 1328c11,-869 -614,-1444 -1484,-1434l-522 0 -435 0 -443 0c-100,0 -169,72 -169,175l0 3696c0,108 61,169 169,169l872 0c111,0 180,-67 180,-169l0 -1012 348 0c870,8 1495,-565 1484,-1425zm-1218 -6c0,102 -33,188 -103,257 -69,70 -152,103 -248,103l-263 0 0 -720 263 0c96,0 179,36 248,105 70,70 103,153 103,255zm5503 1602c0,-55 -39,-125 -142,-125l-290 0 0 -2783c0,-77 -44,-122 -122,-122l-973 0c-74,0 -121,45 -121,122l0 2756 -1054 0 0 -2756c0,-77 -47,-122 -121,-122l-977 0c-74,0 -122,45 -122,122l0 3797c0,77 48,121 122,121l2665 0 0 578c0,81 53,141 139,141l871 0c55,0 125,-39 125,-141l0 -1588zm1547 -2908c0,-77 -45,-122 -122,-122l-975 0c-77,0 -122,45 -122,122l0 3797c0,77 45,121 122,121l975 0c77,0 122,-44 122,-121l0 -3797zm3651 50c0,-100 -69,-172 -169,-172l-227 0 -1262 0c-868,-10 -1499,565 -1488,1433 0,475 215,882 584,1133l-700 1281c-11,22 -17,44 -17,69 0,69 53,124 127,124l994 0c96,0 132,-25 196,-144l551 -1067 191 0 0 1042c0,102 69,169 179,169l872 0c109,0 169,-61 169,-169l0 -3699zm-1929 1255c0,-212 147,-360 355,-360l354 0 0 775 -354 0c-203,0 -355,-199 -355,-415z"/>
  </g>
 </g>
</svg>
