<?xml version="1.0" encoding="UTF-8"?>
<!DOCTYPE svg PUBLIC "-//W3C//DTD SVG 1.1//EN" "http://www.w3.org/Graphics/SVG/1.1/DTD/svg11.dtd">
<!-- Creator: CorelDRAW X7 -->
<svg xmlns="http://www.w3.org/2000/svg" xml:space="preserve" width="55.5584mm" height="7.1725mm" version="1.1" style="shape-rendering:geometricPrecision; text-rendering:geometricPrecision; image-rendering:optimizeQuality; fill-rule:evenodd; clip-rule:evenodd"
viewBox="0 0 4455 575"
 xmlns:xlink="http://www.w3.org/1999/xlink">
 <defs>
  <style type="text/css">
   <![CDATA[
    .str0 {stroke:#FEFEFE;stroke-width:80.1926;stroke-linecap:round;stroke-linejoin:round}
    .fil0 {fill:none;fill-rule:nonzero}
    .fil1 {fill:#2B2A29;fill-rule:nonzero}
   ]]>
  </style>
 </defs>
 <g id="Слой_x0020_1">
  <metadata id="CorelCorpID_0Corel-Layer"/>
  <g>
   <path class="fil0 str0" d="M40 281c-1,37 32,69 69,69 37,0 70,-32 69,-69 1,-38 -32,-70 -69,-69 -37,-1 -70,31 -69,69zm2260 0c-1,37 31,69 69,69 37,0 69,-32 69,-69 0,-38 -32,-70 -69,-69 -38,-1 -70,31 -69,69zm-1645 -226c0,-6 -5,-10 -13,-10l-91 0c-10,0 -18,7 -20,15l-35 142 -34 -142c-2,-9 -10,-15 -20,-15l-91 0c-8,0 -13,4 -13,10 0,2 1,5 2,8l102 253 -2 7c-1,3 -11,7 -18,7 -9,0 -16,7 -16,17l0 70c0,9 9,15 21,15 46,0 73,-10 90,-31 9,-11 17,-25 25,-43l18 -46 0 0 93 -249c1,-3 2,-5 2,-8zm254 364c0,-3 -1,-6 -4,-10l-69 -96 64 -101c1,-3 3,-6 3,-8 0,-4 -4,-7 -11,-7l-90 0c-9,0 -18,6 -23,15l-28 50 -12 0 0 -55c0,-6 -4,-10 -10,-10l-82 0c-7,0 -11,4 -11,10l0 208c0,7 4,10 11,10l82 0c6,0 10,-3 10,-10l0 -62 11 0 37 62c3,6 9,10 14,10l97 0c7,0 11,-2 11,-6zm268 -108c0,-71 -42,-124 -102,-123 -28,0 -50,12 -66,34l-13 -20c-2,-3 -4,-5 -8,-5l-49 0c-6,0 -10,5 -10,11l0 316c0,7 4,11 10,11l82 0c6,0 10,-4 10,-11l-1 -103c13,8 28,13 45,13 60,1 102,-52 102,-123zm-97 0c0,15 -11,26 -26,26 -14,0 -26,-11 -26,-26 0,-15 12,-27 26,-27 15,0 26,12 26,27zm356 -103c0,-7 -4,-11 -11,-11l-60 0c-3,0 -5,1 -7,4l-9 14c-15,-17 -35,-26 -59,-26 -60,-1 -103,52 -102,123 -1,70 42,123 102,122 24,0 45,-9 59,-26l9 12c2,3 4,4 7,4l60 0c7,0 11,-4 11,-10l0 -206zm-99 103c0,15 -12,26 -27,26 -14,0 -26,-11 -26,-26 0,-15 12,-26 26,-26 15,0 27,11 27,26zm239 -104c0,-6 -4,-10 -10,-10l-82 0c-7,0 -11,4 -11,10l0 208c0,7 4,10 11,10l82 0c6,0 10,-3 10,-10l0 -208zm-139 -86c0,23 19,42 42,42 23,0 42,-19 42,-42 0,-23 -19,-41 -42,-41 -23,0 -42,18 -42,41zm91 0c0,23 19,42 42,42 22,0 41,-19 41,-42 0,-23 -19,-41 -41,-41 -23,0 -42,18 -42,41zm319 86c0,-6 -4,-10 -10,-10l-83 0c-6,0 -10,4 -10,10l0 56 -29 0 0 -56c0,-6 -3,-10 -10,-10l-82 0c-6,0 -10,4 -10,10l0 208c0,7 4,10 10,10l82 0c7,0 10,-3 10,-10l0 -58 29 0 0 58c0,7 4,10 10,10l83 0c6,0 10,-3 10,-10l0 -208zm273 1c0,-7 -5,-11 -11,-11l-60 0c-4,0 -6,1 -8,4l-9 14c-15,-17 -35,-26 -59,-26 -60,-1 -102,52 -102,123 0,70 42,123 102,122 24,0 45,-9 60,-26l8 12c2,3 4,4 8,4l60 0c6,0 11,-4 11,-10l0 -206zm-100 103c0,15 -12,26 -27,26 -14,0 -26,-11 -26,-26 0,-15 12,-26 26,-26 15,0 27,11 27,26zm893 -131c1,-81 -58,-136 -140,-135l-49 0 -40 0 -42 0c-10,0 -16,7 -16,17l0 347c0,11 6,16 16,16l82 0c10,0 17,-6 17,-16l0 -95 32 0c82,1 141,-53 140,-134zm-114 0c0,9 -4,17 -10,24 -7,6 -14,10 -24,10l-24 0 0 -68 24 0c10,0 17,3 24,10 6,6 10,14 10,24zm377 26c0,-6 -4,-9 -9,-9l-87 0c-7,0 -13,4 -14,10l-19 85 -18 -85c-1,-6 -8,-10 -14,-10l-87 0c-5,0 -9,3 -9,9 0,2 0,4 1,6l75 186 -47 118c-2,3 -3,6 -3,9 0,7 6,10 16,10l73 0c7,0 12,-3 14,-9l45 -110c0,0 0,-1 0,-1l81 -203c1,-2 2,-4 2,-6zm327 220c8,0 14,-6 13,-13l-31 -203c-1,-7 -6,-13 -14,-13l-101 0c-6,0 -11,4 -12,13l-9 75 -9 -75c-1,-9 -6,-13 -12,-13l-102 0c-7,0 -12,6 -13,13l-31 203c-1,7 5,13 13,13l73 -1c9,0 13,-4 14,-12l9 -76 6 76c1,9 4,12 13,12l78 0c8,0 12,-3 13,-12l6 -75 9 75c1,8 5,12 13,12l74 1zm276 -220c0,-6 -4,-9 -9,-9l-87 0c-7,0 -13,4 -14,10l-19 85 -18 -85c-1,-6 -8,-10 -14,-10l-87 0c-5,0 -9,3 -9,9 0,2 1,4 1,6l75 186 -47 118c-2,3 -2,6 -2,9 0,7 5,10 15,10l73 0c7,0 12,-3 14,-9l45 -110c0,0 0,-1 0,-1l81 -203c1,-2 2,-4 2,-6zm251 1c0,-6 -4,-10 -10,-10l-83 0c-6,0 -10,4 -10,10l0 56 -29 0 0 -56c0,-6 -3,-10 -10,-10l-82 0c-6,0 -10,4 -10,10l0 208c0,7 4,10 10,10l82 0c7,0 10,-3 10,-10l0 -58 29 0 0 58c0,7 4,10 10,10l83 0c6,0 10,-3 10,-10l0 -208zm30 -108c0,32 26,59 58,59 32,0 59,-27 59,-59 0,-32 -27,-59 -59,-59 -32,0 -58,27 -58,59zm109 108c0,-6 -3,-10 -10,-10l-82 0c-6,0 -10,4 -10,10l0 208c0,7 4,10 10,10l82 0c7,0 10,-3 10,-10l0 -208zm246 4c0,-8 -6,-14 -15,-14l-117 0c-49,-1 -91,40 -90,89 0,24 10,46 25,62l-23 61c-1,2 -1,4 -1,6 0,7 6,10 16,10l66 0c9,0 17,-5 20,-15l14 -36 2 0 0 33c0,11 7,18 16,18l70 0c9,0 17,-8 17,-19l0 -195zm-123 75c0,-6 3,-11 8,-11l12 0 0 21 -12 0c-5,0 -8,-5 -8,-10z"/>
   <path id="1" class="fil1" d="M40 281c-1,37 32,69 69,69 37,0 70,-32 69,-69 1,-38 -32,-70 -69,-69 -37,-1 -70,31 -69,69zm2260 0c-1,37 31,69 69,69 37,0 69,-32 69,-69 0,-38 -32,-70 -69,-69 -38,-1 -70,31 -69,69zm-1645 -226c0,-6 -5,-10 -13,-10l-91 0c-10,0 -18,7 -20,15l-35 142 -34 -142c-2,-9 -10,-15 -20,-15l-91 0c-8,0 -13,4 -13,10 0,2 1,5 2,8l102 253 -2 7c-1,3 -11,7 -18,7 -9,0 -16,7 -16,17l0 70c0,9 9,15 21,15 46,0 73,-10 90,-31 9,-11 17,-25 25,-43l18 -46 0 0 93 -249c1,-3 2,-5 2,-8zm254 364c0,-3 -1,-6 -4,-10l-69 -96 64 -101c1,-3 3,-6 3,-8 0,-4 -4,-7 -11,-7l-90 0c-9,0 -18,6 -23,15l-28 50 -12 0 0 -55c0,-6 -4,-10 -10,-10l-82 0c-7,0 -11,4 -11,10l0 208c0,7 4,10 11,10l82 0c6,0 10,-3 10,-10l0 -62 11 0 37 62c3,6 9,10 14,10l97 0c7,0 11,-2 11,-6zm268 -108c0,-71 -42,-124 -102,-123 -28,0 -50,12 -66,34l-13 -20c-2,-3 -4,-5 -8,-5l-49 0c-6,0 -10,5 -10,11l0 316c0,7 4,11 10,11l82 0c6,0 10,-4 10,-11l-1 -103c13,8 28,13 45,13 60,1 102,-52 102,-123zm-97 0c0,15 -11,26 -26,26 -14,0 -26,-11 -26,-26 0,-15 12,-27 26,-27 15,0 26,12 26,27zm356 -103c0,-7 -4,-11 -11,-11l-60 0c-3,0 -5,1 -7,4l-9 14c-15,-17 -35,-26 -59,-26 -60,-1 -103,52 -102,123 -1,70 42,123 102,122 24,0 45,-9 59,-26l9 12c2,3 4,4 7,4l60 0c7,0 11,-4 11,-10l0 -206zm-99 103c0,15 -12,26 -27,26 -14,0 -26,-11 -26,-26 0,-15 12,-26 26,-26 15,0 27,11 27,26zm239 -104c0,-6 -4,-10 -10,-10l-82 0c-7,0 -11,4 -11,10l0 208c0,7 4,10 11,10l82 0c6,0 10,-3 10,-10l0 -208zm-139 -86c0,23 19,42 42,42 23,0 42,-19 42,-42 0,-23 -19,-41 -42,-41 -23,0 -42,18 -42,41zm91 0c0,23 19,42 42,42 22,0 41,-19 41,-42 0,-23 -19,-41 -41,-41 -23,0 -42,18 -42,41zm319 86c0,-6 -4,-10 -10,-10l-83 0c-6,0 -10,4 -10,10l0 56 -29 0 0 -56c0,-6 -3,-10 -10,-10l-82 0c-6,0 -10,4 -10,10l0 208c0,7 4,10 10,10l82 0c7,0 10,-3 10,-10l0 -58 29 0 0 58c0,7 4,10 10,10l83 0c6,0 10,-3 10,-10l0 -208zm273 1c0,-7 -5,-11 -11,-11l-60 0c-4,0 -6,1 -8,4l-9 14c-15,-17 -35,-26 -59,-26 -60,-1 -102,52 -102,123 0,70 42,123 102,122 24,0 45,-9 60,-26l8 12c2,3 4,4 8,4l60 0c6,0 11,-4 11,-10l0 -206zm-100 103c0,15 -12,26 -27,26 -14,0 -26,-11 -26,-26 0,-15 12,-26 26,-26 15,0 27,11 27,26zm893 -131c1,-81 -58,-136 -140,-135l-49 0 -40 0 -42 0c-10,0 -16,7 -16,17l0 347c0,11 6,16 16,16l82 0c10,0 17,-6 17,-16l0 -95 32 0c82,1 141,-53 140,-134zm-114 0c0,9 -4,17 -10,24 -7,6 -14,10 -24,10l-24 0 0 -68 24 0c10,0 17,3 24,10 6,6 10,14 10,24zm377 26c0,-6 -4,-9 -9,-9l-87 0c-7,0 -13,4 -14,10l-19 85 -18 -85c-1,-6 -8,-10 -14,-10l-87 0c-5,0 -9,3 -9,9 0,2 0,4 1,6l75 186 -47 118c-2,3 -3,6 -3,9 0,7 6,10 16,10l73 0c7,0 12,-3 14,-9l45 -110c0,0 0,-1 0,-1l81 -203c1,-2 2,-4 2,-6zm327 220c8,0 14,-6 13,-13l-31 -203c-1,-7 -6,-13 -14,-13l-101 0c-6,0 -11,4 -12,13l-9 75 -9 -75c-1,-9 -6,-13 -12,-13l-102 0c-7,0 -12,6 -13,13l-31 203c-1,7 5,13 13,13l73 -1c9,0 13,-4 14,-12l9 -76 6 76c1,9 4,12 13,12l78 0c8,0 12,-3 13,-12l6 -75 9 75c1,8 5,12 13,12l74 1zm276 -220c0,-6 -4,-9 -9,-9l-87 0c-7,0 -13,4 -14,10l-19 85 -18 -85c-1,-6 -8,-10 -14,-10l-87 0c-5,0 -9,3 -9,9 0,2 1,4 1,6l75 186 -47 118c-2,3 -2,6 -2,9 0,7 5,10 15,10l73 0c7,0 12,-3 14,-9l45 -110c0,0 0,-1 0,-1l81 -203c1,-2 2,-4 2,-6zm251 1c0,-6 -4,-10 -10,-10l-83 0c-6,0 -10,4 -10,10l0 56 -29 0 0 -56c0,-6 -3,-10 -10,-10l-82 0c-6,0 -10,4 -10,10l0 208c0,7 4,10 10,10l82 0c7,0 10,-3 10,-10l0 -58 29 0 0 58c0,7 4,10 10,10l83 0c6,0 10,-3 10,-10l0 -208zm30 -108c0,32 26,59 58,59 32,0 59,-27 59,-59 0,-32 -27,-59 -59,-59 -32,0 -58,27 -58,59zm109 108c0,-6 -3,-10 -10,-10l-82 0c-6,0 -10,4 -10,10l0 208c0,7 4,10 10,10l82 0c7,0 10,-3 10,-10l0 -208zm246 4c0,-8 -6,-14 -15,-14l-117 0c-49,-1 -91,40 -90,89 0,24 10,46 25,62l-23 61c-1,2 -1,4 -1,6 0,7 6,10 16,10l66 0c9,0 17,-5 20,-15l14 -36 2 0 0 33c0,11 7,18 16,18l70 0c9,0 17,-8 17,-19l0 -195zm-123 75c0,-6 3,-11 8,-11l12 0 0 21 -12 0c-5,0 -8,-5 -8,-10z"/>
  </g>
 </g>
</svg>
