<?xml version="1.0" encoding="UTF-8"?>
<!DOCTYPE svg PUBLIC "-//W3C//DTD SVG 1.1//EN" "http://www.w3.org/Graphics/SVG/1.1/DTD/svg11.dtd">
<!-- Creator: CorelDRAW X7 -->
<svg xmlns="http://www.w3.org/2000/svg" xml:space="preserve" width="53.7213mm" height="7.1725mm" version="1.1" style="shape-rendering:geometricPrecision; text-rendering:geometricPrecision; image-rendering:optimizeQuality; fill-rule:evenodd; clip-rule:evenodd"
viewBox="0 0 4251 568"
 xmlns:xlink="http://www.w3.org/1999/xlink">
 <defs>
  <style type="text/css">
   <![CDATA[
    .str0 {stroke:#FEFEFE;stroke-width:79.1385;stroke-linecap:round;stroke-linejoin:round}
    .fil0 {fill:none;fill-rule:nonzero}
    .fil1 {fill:#2B2A29;fill-rule:nonzero}
   ]]>
  </style>
 </defs>
 <g id="Слой_x0020_1">
  <metadata id="CorelCorpID_0Corel-Layer"/>
  <g>
   <path class="fil0 str0" d="M40 277c-1,37 31,69 68,68 36,1 68,-31 68,-68 0,-37 -32,-69 -68,-68 -37,-1 -69,31 -68,68zm2455 0c-1,37 31,69 68,68 37,1 69,-31 68,-68 1,-37 -31,-69 -68,-68 -37,-1 -69,31 -68,68zm-1835 14c1,-62 -57,-107 -137,-106l-49 0 0 -39 132 0c8,0 13,-5 13,-12l0 -77c0,-8 -5,-12 -13,-12l-233 0c-7,0 -12,4 -12,11l0 352c0,8 5,12 12,12l150 0c80,1 138,-54 137,-129zm-113 0c0,16 -10,27 -24,27l-49 0 0 -50 49 0c14,0 24,9 24,23zm255 -105c-22,0 -43,6 -62,17 -19,11 -34,25 -46,44 -11,19 -16,39 -16,61 -2,65 57,122 124,121 66,1 125,-56 124,-121 1,-65 -57,-123 -124,-122zm0 147c-15,0 -26,-11 -26,-26 0,-14 11,-26 26,-26 14,0 25,12 25,26 0,15 -11,26 -25,26zm171 -28c-1,12 -3,20 -8,20 -2,0 -5,-1 -8,-1 -3,0 -5,0 -6,0 -9,0 -14,4 -14,11l0 71c0,6 5,12 14,14 3,1 8,2 16,2 8,1 15,2 21,2 20,0 38,-6 53,-18 17,-12 26,-33 29,-64l5 -46 24 -1 0 110c0,10 4,15 13,15l75 0c8,0 13,-6 13,-15l0 -196c0,-9 -6,-15 -16,-15l-185 1c-12,0 -20,9 -21,24l-5 86zm445 -101c0,-6 -4,-10 -10,-10l-160 0c-7,0 -11,4 -11,10l0 205c0,7 4,11 11,11l80 0c7,0 10,-4 10,-11l0 -114 70 0c6,0 10,-4 10,-10l0 -81zm250 1c0,-6 -5,-11 -11,-11l-59 0c-3,0 -6,2 -8,5l-8 13c-15,-17 -35,-26 -59,-26 -59,-1 -101,52 -100,122 -1,69 41,121 100,120 24,0 45,-9 59,-26l8 13c2,3 4,4 8,4l59 0c6,0 11,-4 11,-11l0 -203zm-99 102c0,14 -11,26 -26,26 -14,0 -25,-12 -25,-26 0,-14 11,-26 25,-26 15,0 26,12 26,26zm380 -1c1,-69 -41,-121 -100,-120 -27,0 -50,11 -65,33l-13 -20c-1,-2 -4,-4 -7,-4l-49 0c-6,0 -10,4 -10,11l0 311c0,7 4,11 10,11l81 0c6,0 10,-4 10,-11l-1 -102c13,9 27,13 44,13 59,1 101,-51 100,-122zm-95 1c0,14 -11,26 -25,26 -15,0 -26,-12 -26,-26 0,-15 11,-26 26,-26 14,0 25,11 25,26zm112 -209c0,32 26,58 58,58 32,0 58,-27 58,-58 0,-32 -26,-58 -58,-58 -32,0 -58,26 -58,58zm108 106c0,-6 -3,-10 -10,-10l-81 0c-6,0 -10,4 -10,10l0 206c0,6 4,10 10,10l81 0c7,0 10,-4 10,-10l0 -206zm243 5c0,-8 -7,-15 -15,-15l-116 0c-48,-1 -89,40 -88,88 0,24 9,46 25,62l-23 60c-1,2 -1,3 -1,5 0,7 5,11 16,11l64 0c9,0 17,-6 21,-15l13 -36 2 0 0 33c0,10 7,18 16,18l69 0c9,0 17,-9 17,-20l0 -191zm-122 73c0,-6 4,-11 9,-11l11 0 0 21 -11 0c-5,0 -9,-4 -9,-10zm608 -146c0,10 6,16 16,16l69 0 0 256c0,10 6,15 16,15l81 0c10,0 16,-5 16,-15l0 -256 71 0c9,0 16,-6 16,-16l0 -75c0,-10 -7,-16 -16,-16l-253 0c-10,0 -16,6 -16,16l0 75zm496 67c0,-5 -4,-9 -8,-9l-87 0c-6,0 -12,4 -14,10l-18 84 -18 -84c-1,-6 -7,-10 -14,-10l-86 0c-4,0 -8,4 -8,9 0,2 0,4 1,6l74 184 -47 116c-1,3 -2,6 -2,9 0,7 5,10 15,10l73 0c6,0 11,-3 13,-9l44 -109c0,0 1,0 1,0l80 -201c1,-2 1,-4 1,-6zm262 103c1,-69 -42,-121 -100,-120 -28,0 -50,11 -65,33l-13 -20c-2,-2 -5,-4 -8,-4l-48 0c-7,0 -11,4 -11,11l0 311c0,7 4,11 11,11l80 0c6,0 10,-4 10,-11l-1 -102c13,9 28,13 45,13 58,1 101,-51 100,-122zm-95 1c0,14 -11,26 -26,26 -14,0 -26,-12 -26,-26 0,-15 12,-26 26,-26 15,0 26,11 26,26zm378 31c0,-5 -2,-11 -10,-11l-18 0 0 -123c0,-6 -4,-10 -10,-10l-82 0c-6,0 -9,4 -9,10l0 114 -29 0 0 -114c0,-6 -4,-10 -10,-10l-81 0c-7,0 -10,4 -10,10l0 206c0,6 3,10 10,10l168 0 0 47c0,6 3,11 10,11l62 0c5,0 9,-3 9,-11l0 -129zm17 -240c0,32 26,58 58,58 32,0 58,-27 58,-58 0,-32 -26,-58 -58,-58 -32,0 -58,26 -58,58zm108 106c0,-6 -3,-10 -10,-10l-81 0c-6,0 -10,4 -10,10l0 206c0,6 4,10 10,10l81 0c7,0 10,-4 10,-10l0 -206zm243 5c0,-8 -7,-15 -15,-15l-116 0c-48,-1 -89,40 -88,88 0,24 9,46 24,62l-22 60c-1,2 -1,3 -1,5 0,7 5,11 16,11l64 0c9,0 17,-6 20,-15l14 -36 2 0 0 33c0,10 7,18 16,18l69 0c9,0 17,-9 17,-20l0 -191zm-122 73c0,-6 4,-11 9,-11l11 0 0 21 -11 0c-5,0 -9,-4 -9,-10z"/>
   <path id="1" class="fil1" d="M40 277c-1,37 31,69 68,68 36,1 68,-31 68,-68 0,-37 -32,-69 -68,-68 -37,-1 -69,31 -68,68zm2455 0c-1,37 31,69 68,68 37,1 69,-31 68,-68 1,-37 -31,-69 -68,-68 -37,-1 -69,31 -68,68zm-1835 14c1,-62 -57,-107 -137,-106l-49 0 0 -39 132 0c8,0 13,-5 13,-12l0 -77c0,-8 -5,-12 -13,-12l-233 0c-7,0 -12,4 -12,11l0 352c0,8 5,12 12,12l150 0c80,1 138,-54 137,-129zm-113 0c0,16 -10,27 -24,27l-49 0 0 -50 49 0c14,0 24,9 24,23zm255 -105c-22,0 -43,6 -62,17 -19,11 -34,25 -46,44 -11,19 -16,39 -16,61 -2,65 57,122 124,121 66,1 125,-56 124,-121 1,-65 -57,-123 -124,-122zm0 147c-15,0 -26,-11 -26,-26 0,-14 11,-26 26,-26 14,0 25,12 25,26 0,15 -11,26 -25,26zm171 -28c-1,12 -3,20 -8,20 -2,0 -5,-1 -8,-1 -3,0 -5,0 -6,0 -9,0 -14,4 -14,11l0 71c0,6 5,12 14,14 3,1 8,2 16,2 8,1 15,2 21,2 20,0 38,-6 53,-18 17,-12 26,-33 29,-64l5 -46 24 -1 0 110c0,10 4,15 13,15l75 0c8,0 13,-6 13,-15l0 -196c0,-9 -6,-15 -16,-15l-185 1c-12,0 -20,9 -21,24l-5 86zm445 -101c0,-6 -4,-10 -10,-10l-160 0c-7,0 -11,4 -11,10l0 205c0,7 4,11 11,11l80 0c7,0 10,-4 10,-11l0 -114 70 0c6,0 10,-4 10,-10l0 -81zm250 1c0,-6 -5,-11 -11,-11l-59 0c-3,0 -6,2 -8,5l-8 13c-15,-17 -35,-26 -59,-26 -59,-1 -101,52 -100,122 -1,69 41,121 100,120 24,0 45,-9 59,-26l8 13c2,3 4,4 8,4l59 0c6,0 11,-4 11,-11l0 -203zm-99 102c0,14 -11,26 -26,26 -14,0 -25,-12 -25,-26 0,-14 11,-26 25,-26 15,0 26,12 26,26zm380 -1c1,-69 -41,-121 -100,-120 -27,0 -50,11 -65,33l-13 -20c-1,-2 -4,-4 -7,-4l-49 0c-6,0 -10,4 -10,11l0 311c0,7 4,11 10,11l81 0c6,0 10,-4 10,-11l-1 -102c13,9 27,13 44,13 59,1 101,-51 100,-122zm-95 1c0,14 -11,26 -25,26 -15,0 -26,-12 -26,-26 0,-15 11,-26 26,-26 14,0 25,11 25,26zm112 -209c0,32 26,58 58,58 32,0 58,-27 58,-58 0,-32 -26,-58 -58,-58 -32,0 -58,26 -58,58zm108 106c0,-6 -3,-10 -10,-10l-81 0c-6,0 -10,4 -10,10l0 206c0,6 4,10 10,10l81 0c7,0 10,-4 10,-10l0 -206zm243 5c0,-8 -7,-15 -15,-15l-116 0c-48,-1 -89,40 -88,88 0,24 9,46 25,62l-23 60c-1,2 -1,3 -1,5 0,7 5,11 16,11l64 0c9,0 17,-6 21,-15l13 -36 2 0 0 33c0,10 7,18 16,18l69 0c9,0 17,-9 17,-20l0 -191zm-122 73c0,-6 4,-11 9,-11l11 0 0 21 -11 0c-5,0 -9,-4 -9,-10zm608 -146c0,10 6,16 16,16l69 0 0 256c0,10 6,15 16,15l81 0c10,0 16,-5 16,-15l0 -256 71 0c9,0 16,-6 16,-16l0 -75c0,-10 -7,-16 -16,-16l-253 0c-10,0 -16,6 -16,16l0 75zm496 67c0,-5 -4,-9 -8,-9l-87 0c-6,0 -12,4 -14,10l-18 84 -18 -84c-1,-6 -7,-10 -14,-10l-86 0c-4,0 -8,4 -8,9 0,2 0,4 1,6l74 184 -47 116c-1,3 -2,6 -2,9 0,7 5,10 15,10l73 0c6,0 11,-3 13,-9l44 -109c0,0 1,0 1,0l80 -201c1,-2 1,-4 1,-6zm262 103c1,-69 -42,-121 -100,-120 -28,0 -50,11 -65,33l-13 -20c-2,-2 -5,-4 -8,-4l-48 0c-7,0 -11,4 -11,11l0 311c0,7 4,11 11,11l80 0c6,0 10,-4 10,-11l-1 -102c13,9 28,13 45,13 58,1 101,-51 100,-122zm-95 1c0,14 -11,26 -26,26 -14,0 -26,-12 -26,-26 0,-15 12,-26 26,-26 15,0 26,11 26,26zm378 31c0,-5 -2,-11 -10,-11l-18 0 0 -123c0,-6 -4,-10 -10,-10l-82 0c-6,0 -9,4 -9,10l0 114 -29 0 0 -114c0,-6 -4,-10 -10,-10l-81 0c-7,0 -10,4 -10,10l0 206c0,6 3,10 10,10l168 0 0 47c0,6 3,11 10,11l62 0c5,0 9,-3 9,-11l0 -129zm17 -240c0,32 26,58 58,58 32,0 58,-27 58,-58 0,-32 -26,-58 -58,-58 -32,0 -58,26 -58,58zm108 106c0,-6 -3,-10 -10,-10l-81 0c-6,0 -10,4 -10,10l0 206c0,6 4,10 10,10l81 0c7,0 10,-4 10,-10l0 -206zm243 5c0,-8 -7,-15 -15,-15l-116 0c-48,-1 -89,40 -88,88 0,24 9,46 24,62l-22 60c-1,2 -1,3 -1,5 0,7 5,11 16,11l64 0c9,0 17,-6 20,-15l14 -36 2 0 0 33c0,10 7,18 16,18l69 0c9,0 17,-9 17,-20l0 -191zm-122 73c0,-6 4,-11 9,-11l11 0 0 21 -11 0c-5,0 -9,-4 -9,-10z"/>
  </g>
 </g>
</svg>
